<svg xmlns="http://www.w3.org/2000/svg" width="188" height="165" viewBox="0 0 188 165">
  <g id="Grupo_85572" data-name="Grupo 85572" transform="translate(11871 7632)">
    <g id="Grupo_85520" data-name="Grupo 85520" transform="translate(8.9 86.875)">
      <g id="tabla" transform="translate(-11871 -7682.5)">
        <path id="Trazado_154571" data-name="Trazado 154571" d="M23.01,31H59.145V43.031H23.01Z" transform="translate(23.129 23.143)" fill="#fff"/>
        <path id="Trazado_154572" data-name="Trazado 154572" d="M5,31H41.113V43.031H5Z" transform="translate(5.026 23.143)" fill="#48cfad"/>
        <path id="Trazado_154573" data-name="Trazado 154573" d="M41.03,25H77.063V37.031H41.03Z" transform="translate(41.242 17.112)" fill="#fff"/>
        <path id="Trazado_154574" data-name="Trazado 154574" d="M41.03,13H77.063V25.031H41.03Z" transform="translate(41.242 5.05)" fill="#48cfad"/>
        <g id="Grupo_85515" data-name="Grupo 85515" transform="translate(46.139 42.112)">
          <path id="Trazado_154575" data-name="Trazado 154575" d="M41.03,31H77.063V43.031H41.03Z" transform="translate(-4.897 -18.969)" fill="#fff"/>
          <path id="Trazado_154576" data-name="Trazado 154576" d="M23.01,25H59.145V37.031H23.01Z" transform="translate(-23.01 -25)" fill="#fff"/>
          <path id="Trazado_154577" data-name="Trazado 154577" d="M23.01,37H59.145V49.031H23.01Z" transform="translate(-23.01 -12.938)" fill="#fff"/>
        </g>
        <path id="Trazado_154578" data-name="Trazado 154578" d="M5,25H41.113V37.031H5Z" transform="translate(5.026 17.112)" fill="#48cfad"/>
        <path id="Trazado_154579" data-name="Trazado 154579" d="M5,43H41.113V55.031H5Z" transform="translate(5.026 35.205)" fill="#48cfad"/>
        <path id="Trazado_154580" data-name="Trazado 154580" d="M41.03,43H77.063V55.031H41.03Z" transform="translate(41.242 35.205)" fill="#fff"/>
        <path id="Trazado_154581" data-name="Trazado 154581" d="M41.03,49H77.063V61.031H41.03Z" transform="translate(41.242 41.236)" fill="#fff"/>
        <path id="Trazado_154582" data-name="Trazado 154582" d="M5,49H41.113V61.031H5Z" transform="translate(5.026 41.236)" fill="#48cfad"/>
        <path id="Trazado_154583" data-name="Trazado 154583" d="M5,19H41.113V31.031H5Z" transform="translate(5.026 11.081)" fill="#48cfad"/>
        <path id="Trazado_154584" data-name="Trazado 154584" d="M41.03,19H77.063V31.031H41.03Z" transform="translate(41.242 11.081)" fill="#fff"/>
        <path id="Trazado_154585" data-name="Trazado 154585" d="M23.01,19H59.145V31.031H23.01Z" transform="translate(23.129 11.081)" fill="#fff"/>
        <path id="Trazado_154586" data-name="Trazado 154586" d="M41.03,37H77.063V49.031H41.03Z" transform="translate(41.242 29.174)" fill="#fff"/>
        <path id="Trazado_154587" data-name="Trazado 154587" d="M5,37H41.113V49.031H5Z" transform="translate(5.026 29.174)" fill="#48cfad"/>
        <path id="Trazado_154588" data-name="Trazado 154588" d="M23.01,13H59.145V25.031H23.01Z" transform="translate(23.129 5.05)" fill="#48cfad"/>
        <path id="Trazado_154589" data-name="Trazado 154589" d="M23.01,43H59.145V55.031H23.01Z" transform="translate(23.129 35.205)" fill="#fff"/>
        <path id="Trazado_154590" data-name="Trazado 154590" d="M23.01,49H59.145V61.031H23.01Z" transform="translate(23.129 41.236)" fill="#fff"/>
        <path id="Trazado_154591" data-name="Trazado 154591" d="M125.32,9.01v4.01H1V9.01A4.009,4.009,0,0,1,5.01,5h116.3A4,4,0,0,1,125.32,9.01Z" transform="translate(1.005 -2.991)" fill="#ccd1d9"/>
        <path id="Trazado_154592" data-name="Trazado 154592" d="M125.32,9V109.258H1V9ZM117.3,101.237V17.021H45.134V29.052H9.021v72.186H117.3Z" transform="translate(1.005 1.03)" fill="#e6e9ed"/>
        <path id="Trazado_154593" data-name="Trazado 154593" d="M2.005,12.019A2,2,0,0,1,0,10.013,6.023,6.023,0,0,1,6.015,4a2.005,2.005,0,1,1,0,4.01A2.006,2.006,0,0,0,4.01,10.013,2,2,0,0,1,2.005,12.019Z" transform="translate(0 -3.998)"/>
        <path id="Trazado_154594" data-name="Trazado 154594" d="M66.015,12.019a2,2,0,0,1-2.005-2.005,2.006,2.006,0,0,0-2.005-2.005,2.005,2.005,0,1,1,0-4.01,6.023,6.023,0,0,1,6.015,6.015A2,2,0,0,1,66.015,12.019Z" transform="translate(60.31 -3.998)"/>
        <path id="Trazado_154595" data-name="Trazado 154595" d="M120.3,8.008H4.005a2.005,2.005,0,1,1,0-4.01H120.3a2.005,2.005,0,0,1,0,4.01Z" transform="translate(2.01 -3.998)"/>
        <path id="Trazado_154596" data-name="Trazado 154596" d="M5.04,10.008A2.005,2.005,0,0,1,5.018,6H5.04a2.005,2.005,0,1,1,0,4.01Z" transform="translate(3.041 -1.988)"/>
        <path id="Trazado_154597" data-name="Trazado 154597" d="M8.039,10.008A2.005,2.005,0,0,1,8.017,6h.022a2.005,2.005,0,1,1,0,4.01Z" transform="translate(6.055 -1.988)"/>
        <path id="Trazado_154598" data-name="Trazado 154598" d="M11.042,10.008A2.005,2.005,0,0,1,11.02,6h.022a2.005,2.005,0,1,1,0,4.01Z" transform="translate(9.074 -1.988)"/>
        <path id="Trazado_154599" data-name="Trazado 154599" d="M2.005,114.285A2,2,0,0,1,0,112.28V8A2.005,2.005,0,0,1,4.01,8V112.28A2,2,0,0,1,2.005,114.285Z" transform="translate(0 -1.988)"/>
        <path id="Trazado_154600" data-name="Trazado 154600" d="M64.005,114.285A2,2,0,0,1,62,112.28V8a2.005,2.005,0,0,1,4.01,0V112.28A2,2,0,0,1,64.005,114.285Z" transform="translate(62.32 -1.988)"/>
        <path id="Trazado_154601" data-name="Trazado 154601" d="M126.325,12.008H2.005a2.005,2.005,0,1,1,0-4.01h124.32a2.005,2.005,0,1,1,0,4.01Z" transform="translate(0 0.023)"/>
        <path id="Trazado_154602" data-name="Trazado 154602" d="M126.325,62.012H2.005a2.005,2.005,0,0,1,0-4.01h124.32a2.005,2.005,0,1,1,0,4.01Z" transform="translate(0 50.285)"/>
        <path id="Trazado_154603" data-name="Trazado 154603" d="M114.281,100.224H6.006A2,2,0,0,1,4,98.219V26.035a2.005,2.005,0,1,1,4.01,0V96.214H112.276v-80.2H42.125a2.005,2.005,0,0,1,0-4.01h72.156a2,2,0,0,1,2.005,2.005V98.219A2,2,0,0,1,114.281,100.224Z" transform="translate(4.022 4.046)"/>
        <path id="Trazado_154604" data-name="Trazado 154604" d="M24.019,100.224a2,2,0,0,1-2.005-2.005V14.006a2.005,2.005,0,1,1,4.01,0V98.219A2,2,0,0,1,24.019,100.224Z" transform="translate(22.128 4.046)"/>
        <path id="Trazado_154605" data-name="Trazado 154605" d="M42.032,100.224a2,2,0,0,1-2.005-2.005V14.006a2.005,2.005,0,1,1,4.01,0V98.219A2,2,0,0,1,42.032,100.224Z" transform="translate(40.234 4.046)"/>
        <path id="Trazado_154606" data-name="Trazado 154606" d="M114.281,22.01H6.006a2.005,2.005,0,1,1,0-4.01H114.281a2.005,2.005,0,0,1,0,4.01Z" transform="translate(4.022 10.076)"/>
        <path id="Trazado_154607" data-name="Trazado 154607" d="M114.281,28.01H6.006a2.005,2.005,0,0,1,0-4.01H114.281a2.005,2.005,0,0,1,0,4.01Z" transform="translate(4.022 16.107)"/>
        <path id="Trazado_154608" data-name="Trazado 154608" d="M114.281,34.01H6.006a2.005,2.005,0,1,1,0-4.01H114.281a2.005,2.005,0,0,1,0,4.01Z" transform="translate(4.022 22.138)"/>
        <path id="Trazado_154609" data-name="Trazado 154609" d="M114.281,40.01H6.006a2.005,2.005,0,1,1,0-4.01H114.281a2.005,2.005,0,0,1,0,4.01Z" transform="translate(4.022 28.169)"/>
        <path id="Trazado_154610" data-name="Trazado 154610" d="M114.281,46.01H6.006a2.005,2.005,0,0,1,0-4.01H114.281a2.005,2.005,0,0,1,0,4.01Z" transform="translate(4.022 34.2)"/>
        <path id="Trazado_154611" data-name="Trazado 154611" d="M114.281,52.01H6.006a2.005,2.005,0,1,1,0-4.01H114.281a2.005,2.005,0,0,1,0,4.01Z" transform="translate(4.022 40.231)"/>
        <path id="Trazado_154612" data-name="Trazado 154612" d="M45.04,19.01H29.007a2.005,2.005,0,1,1,0-4.01H45.04a2.005,2.005,0,1,1,0,4.01Z" transform="translate(27.141 7.061)"/>
        <path id="Trazado_154613" data-name="Trazado 154613" d="M27.039,25.01H11.006a2.005,2.005,0,1,1,0-4.01H27.039a2.005,2.005,0,0,1,0,4.01Z" transform="translate(9.047 13.092)"/>
        <path id="Trazado_154614" data-name="Trazado 154614" d="M36.015,25.01h-4.01a2.005,2.005,0,1,1,0-4.01h4.01a2.005,2.005,0,0,1,0,4.01Z" transform="translate(30.155 13.092)"/>
        <path id="Trazado_154615" data-name="Trazado 154615" d="M36.015,31.01h-4.01a2.005,2.005,0,1,1,0-4.01h4.01a2.005,2.005,0,0,1,0,4.01Z" transform="translate(30.155 19.123)"/>
        <path id="Trazado_154616" data-name="Trazado 154616" d="M36.015,37.01h-4.01a2.005,2.005,0,1,1,0-4.01h4.01a2.005,2.005,0,0,1,0,4.01Z" transform="translate(30.155 25.154)"/>
        <path id="Trazado_154617" data-name="Trazado 154617" d="M36.015,43.01h-4.01a2.005,2.005,0,1,1,0-4.01h4.01a2.005,2.005,0,0,1,0,4.01Z" transform="translate(30.155 31.185)"/>
        <path id="Trazado_154618" data-name="Trazado 154618" d="M36.015,49.01h-4.01a2.005,2.005,0,1,1,0-4.01h4.01a2.005,2.005,0,0,1,0,4.01Z" transform="translate(30.155 37.216)"/>
        <path id="Trazado_154619" data-name="Trazado 154619" d="M36.015,55.01h-4.01a2.005,2.005,0,1,1,0-4.01h4.01a2.005,2.005,0,0,1,0,4.01Z" transform="translate(30.155 43.247)"/>
        <path id="Trazado_154620" data-name="Trazado 154620" d="M54.015,25.01h-4.01a2.005,2.005,0,1,1,0-4.01h4.01a2.005,2.005,0,1,1,0,4.01Z" transform="translate(48.248 13.092)"/>
        <path id="Trazado_154621" data-name="Trazado 154621" d="M54.015,31.01h-4.01a2.005,2.005,0,1,1,0-4.01h4.01a2.005,2.005,0,1,1,0,4.01Z" transform="translate(48.248 19.123)"/>
        <path id="Trazado_154622" data-name="Trazado 154622" d="M54.015,37.01h-4.01a2.005,2.005,0,0,1,0-4.01h4.01a2.005,2.005,0,0,1,0,4.01Z" transform="translate(48.248 25.154)"/>
        <path id="Trazado_154623" data-name="Trazado 154623" d="M54.015,43.01h-4.01a2.005,2.005,0,1,1,0-4.01h4.01a2.005,2.005,0,1,1,0,4.01Z" transform="translate(48.248 31.185)"/>
        <path id="Trazado_154624" data-name="Trazado 154624" d="M54.015,49.01h-4.01a2.005,2.005,0,1,1,0-4.01h4.01a2.005,2.005,0,1,1,0,4.01Z" transform="translate(48.248 37.216)"/>
        <path id="Trazado_154625" data-name="Trazado 154625" d="M54.015,55.01h-4.01a2.005,2.005,0,0,1,0-4.01h4.01a2.005,2.005,0,0,1,0,4.01Z" transform="translate(48.248 43.247)"/>
        <path id="Trazado_154626" data-name="Trazado 154626" d="M27.039,31.01H11.006a2.005,2.005,0,1,1,0-4.01H27.039a2.005,2.005,0,0,1,0,4.01Z" transform="translate(9.047 19.123)"/>
        <path id="Trazado_154627" data-name="Trazado 154627" d="M27.039,37.01H11.006a2.005,2.005,0,0,1,0-4.01H27.039a2.005,2.005,0,0,1,0,4.01Z" transform="translate(9.047 25.154)"/>
        <path id="Trazado_154628" data-name="Trazado 154628" d="M27.039,43.01H11.006a2.005,2.005,0,1,1,0-4.01H27.039a2.005,2.005,0,1,1,0,4.01Z" transform="translate(9.047 31.185)"/>
        <path id="Trazado_154629" data-name="Trazado 154629" d="M27.039,49.01H11.006a2.005,2.005,0,1,1,0-4.01H27.039a2.005,2.005,0,0,1,0,4.01Z" transform="translate(9.047 37.216)"/>
        <path id="Trazado_154630" data-name="Trazado 154630" d="M27.039,55.01H11.006a2.005,2.005,0,0,1,0-4.01H27.039a2.005,2.005,0,0,1,0,4.01Z" transform="translate(9.047 43.247)"/>
        <path id="Trazado_154631" data-name="Trazado 154631" d="M63.039,19.01H47.006a2.005,2.005,0,1,1,0-4.01H63.039a2.005,2.005,0,1,1,0,4.01Z" transform="translate(45.233 7.061)"/>
      </g>
      <g id="contrasena-de-la-nube" transform="translate(-11749.81 -7645.185)">
        <path id="Trazado_154632" data-name="Trazado 154632" d="M57.951,23.818a9.158,9.158,0,0,0-14.278-7.593,6.655,6.655,0,0,0-5.7-3.23,6.843,6.843,0,0,0-1.9.283V13.27a11.656,11.656,0,0,0-21.355,5.278A9.986,9.986,0,0,0,17.99,37.971h38.3l-.716-7.992A9.123,9.123,0,0,0,57.951,23.818Zm0,0" transform="translate(-7.167 -7.167)" fill="#e6e9ed"/>
        <path id="Trazado_154633" data-name="Trazado 154633" d="M99.33,136h23.311a3.329,3.329,0,0,1,3.33,3.33v2.148a6.656,6.656,0,0,0-3.954,4.512H99.33A3.329,3.329,0,0,1,96,142.66v-3.33A3.329,3.329,0,0,1,99.33,136Zm0,0" transform="translate(-86.01 -121.847)" fill="#b4dd7f"/>
        <path id="Trazado_154634" data-name="Trazado 154634" d="M344.65,298.5v8.533a8.922,8.922,0,0,1-7.485,8.883,5.334,5.334,0,0,1-1.681,0A8.922,8.922,0,0,1,328,307.031V298.5a11.087,11.087,0,0,1,1.665-.966,15.246,15.246,0,0,1,13.32,0A11.089,11.089,0,0,1,344.65,298.5Zm0,0" transform="translate(-293.866 -265.197)" fill="#fcd770"/>
        <path id="Trazado_154635" data-name="Trazado 154635" d="M379.33,328A3.323,3.323,0,0,1,381,334.2l.833,5.453h-5l.833-5.453a3.323,3.323,0,0,1,1.665-6.2Zm0,0" transform="translate(-336.871 -293.866)" fill="#ffc729"/>
        <path id="Trazado_154636" data-name="Trazado 154636" d="M49.951,31.824V25.808a7.448,7.448,0,0,0-.574-2.871A9.986,9.986,0,0,0,36.744,7.932a7.383,7.383,0,0,0-7.481-2.77A12.487,12.487,0,0,0,6.78,10.782a10.818,10.818,0,0,0,4.043,20.854H34.966v.188a10.939,10.939,0,0,0-1.332.811l-.333.25v8.954a9.765,9.765,0,0,0,8.2,9.7,5.85,5.85,0,0,0,1.92,0,9.765,9.765,0,0,0,8.2-9.7V32.885l-.333-.25A10.939,10.939,0,0,0,49.951,31.824Zm-7.493-1.853a16.154,16.154,0,0,0-5.828,1.1V25.808a5.828,5.828,0,0,1,11.655,0v5.259A16.154,16.154,0,0,0,42.459,29.971Zm-3.33-10.864a7.523,7.523,0,0,0-3.726,4.2H13.32a2.5,2.5,0,0,1-2.5-2.5v-3.33a2.5,2.5,0,0,1,2.5-2.5H36.631a2.5,2.5,0,0,1,2.5,2.5ZM10.823,29.971a9.153,9.153,0,0,1-3-17.8l.505-.176.05-.533a10.824,10.824,0,0,1,19.8-4.948L28.5,7.1l.643-.191a5.736,5.736,0,0,1,6.649,2.578l.453.751.727-.491A8.319,8.319,0,0,1,48.478,21.365a7.43,7.43,0,0,0-7.684-2.857V17.483a4.168,4.168,0,0,0-4.163-4.163H13.32a4.168,4.168,0,0,0-4.163,4.163v3.33a4.168,4.168,0,0,0,4.163,4.163H35.015a7.418,7.418,0,0,0-.049.833v4.163ZM49.951,41.838a8.092,8.092,0,0,1-6.772,8.052,4.257,4.257,0,0,1-1.439,0,8.092,8.092,0,0,1-6.774-8.052V33.746a14.36,14.36,0,0,1,14.985,0Zm0,0"/>
        <path id="Trazado_154637" data-name="Trazado 154637" d="M368,324.163a4.164,4.164,0,0,0,1.6,3.259l-.9,5.9h6.933l-.9-5.9A4.157,4.157,0,1,0,368,324.163Zm6.66,0a2.471,2.471,0,0,1-1.251,2.149l-.49.285.772,5.059h-3.057l.772-5.059-.489-.285a2.471,2.471,0,0,1-1.251-2.149,2.5,2.5,0,1,1,5,0Zm0,0" transform="translate(-329.704 -286.699)"/>
        <path id="Trazado_154638" data-name="Trazado 154638" d="M232,160h1.665v1.665H232Zm0,0" transform="translate(-207.857 -143.35)"/>
        <path id="Trazado_154639" data-name="Trazado 154639" d="M232,192h1.665v1.665H232Zm0,0" transform="translate(-207.857 -172.019)"/>
        <path id="Trazado_154640" data-name="Trazado 154640" d="M248,176h1.665v1.665H248Zm0,0" transform="translate(-222.192 -157.684)"/>
        <path id="Trazado_154641" data-name="Trazado 154641" d="M216,176h1.665v1.665H216Zm0,0" transform="translate(-193.522 -157.684)"/>
        <path id="Trazado_154642" data-name="Trazado 154642" d="M312,160h1.665v1.665H312Zm0,0" transform="translate(-279.532 -143.35)"/>
        <path id="Trazado_154643" data-name="Trazado 154643" d="M312,192h1.665v1.665H312Zm0,0" transform="translate(-279.532 -172.019)"/>
        <path id="Trazado_154644" data-name="Trazado 154644" d="M328,176h1.665v1.665H328Zm0,0" transform="translate(-293.866 -157.684)"/>
        <path id="Trazado_154645" data-name="Trazado 154645" d="M296,176h1.665v1.665H296Zm0,0" transform="translate(-265.197 -157.684)"/>
        <path id="Trazado_154646" data-name="Trazado 154646" d="M152,160h1.665v1.665H152Zm0,0" transform="translate(-136.182 -143.35)"/>
        <path id="Trazado_154647" data-name="Trazado 154647" d="M152,192h1.665v1.665H152Zm0,0" transform="translate(-136.182 -172.019)"/>
        <path id="Trazado_154648" data-name="Trazado 154648" d="M168,176h1.665v1.665H168Zm0,0" transform="translate(-150.517 -157.684)"/>
        <path id="Trazado_154649" data-name="Trazado 154649" d="M136,176h1.665v1.665H136Zm0,0" transform="translate(-121.847 -157.684)"/>
        <path id="Trazado_154650" data-name="Trazado 154650" d="M160,336h1.665v11.655H160Zm0,0" transform="translate(-143.35 -301.034)"/>
        <path id="Trazado_154651" data-name="Trazado 154651" d="M160,464h1.665v1.665H160Zm0,0" transform="translate(-143.35 -415.714)"/>
        <path id="Trazado_154652" data-name="Trazado 154652" d="M208,400h1.665v1.665H208Zm0,0" transform="translate(-186.354 -358.374)"/>
        <path id="Trazado_154653" data-name="Trazado 154653" d="M208,336h1.665v5H208Zm0,0" transform="translate(-186.354 -301.034)"/>
        <path id="Trazado_154654" data-name="Trazado 154654" d="M256,432h1.665v1.665H256Zm0,0" transform="translate(-229.359 -387.044)"/>
        <path id="Trazado_154655" data-name="Trazado 154655" d="M256,336h1.665v8.325H256Zm0,0" transform="translate(-229.359 -301.034)"/>
        <path id="Trazado_154656" data-name="Trazado 154656" d="M112,416h1.665v1.665H112Zm0,0" transform="translate(-100.345 -372.709)"/>
        <path id="Trazado_154657" data-name="Trazado 154657" d="M112,336h1.665v6.66H112Zm0,0" transform="translate(-100.345 -301.034)"/>
        <path id="Trazado_154658" data-name="Trazado 154658" d="M103.479,35.86a7.442,7.442,0,0,1,5.3-2.195V32a9.163,9.163,0,0,0-8.737,6.411l1.589.5A7.5,7.5,0,0,1,103.479,35.86Zm0,0" transform="translate(-89.628 -28.67)"/>
      </g>
    </g>
    <rect id="Rectángulo_31736" data-name="Rectángulo 31736" width="188" height="165" transform="translate(-11871 -7632)" fill="none"/>
  </g>
</svg>
