<svg xmlns="http://www.w3.org/2000/svg" width="188" height="165" viewBox="0 0 188 165">
  <g id="Grupo_85618" data-name="Grupo 85618" transform="translate(8528 1874)">
    <g id="cloud" transform="translate(-8488 -1845)">
      <path id="Trazado_154754" data-name="Trazado 154754" d="M112.491,47.976A16.713,16.713,0,0,1,95.779,64.688H31.406A23.8,23.8,0,1,1,42.625,19.9,28.574,28.574,0,0,1,74.466,8.86a27.764,27.764,0,0,1,2.647.959A28.574,28.574,0,0,1,94.22,31.338c.514-.047,1.034-.075,1.559-.075a16.711,16.711,0,0,1,16.713,16.713Zm0,0" transform="translate(-6.003 -6.003)" fill="#efe1f9"/>
      <path id="Trazado_154755" data-name="Trazado 154755" d="M74.466,8.86C65.107,7.077,51.091,19,54.2,31.618c0,0-9.187-7.9-19.443-2.349S19.8,56.951,40.951,64.688H31.406A23.8,23.8,0,1,1,42.625,19.9,28.574,28.574,0,0,1,74.466,8.86Zm0,0" transform="translate(-6.003 -6.003)" fill="#d7c6e5"/>
      <path id="Trazado_154756" data-name="Trazado 154756" d="M388.78,123.236C375.338,121.557,365.9,133.46,365.9,133.46c0-2.99,2.351-12.391,10.967-13.74.514-.047,1.034-.075,1.559-.075A16.644,16.644,0,0,1,388.78,123.236Zm0,0" transform="translate(-288.652 -94.385)" fill="#d7c6e5"/>
      <g id="Grupo_85569" data-name="Grupo 85569" transform="translate(12.036 70.097)">
        <path id="Trazado_154757" data-name="Trazado 154757" d="M442.858,379.22a4.7,4.7,0,1,1-4.7-4.7A4.7,4.7,0,0,1,442.858,379.22Zm0,0" transform="translate(-353.981 -365.547)" fill="#ffe76e"/>
        <path id="Trazado_154758" data-name="Trazado 154758" d="M334.483,460.177a4.7,4.7,0,1,1-4.7-4.7A4.7,4.7,0,0,1,334.483,460.177Zm0,0" transform="translate(-268.486 -429.412)" fill="#ffe76e"/>
        <path id="Trazado_154759" data-name="Trazado 154759" d="M105.541,417.676a4.7,4.7,0,1,1-4.7-4.7A4.7,4.7,0,0,1,105.541,417.676Zm0,0" transform="translate(-87.88 -395.885)" fill="#ffe76e"/>
        <path id="Trazado_154760" data-name="Trazado 154760" d="M66.412,336.719a4.7,4.7,0,1,1-4.7-4.7A4.7,4.7,0,0,1,66.412,336.719Zm0,0" transform="translate(-57.012 -332.02)" fill="#ffe76e"/>
      </g>
      <path id="Trazado_154761" data-name="Trazado 154761" d="M89.776,60.291a18.319,18.319,0,1,0,0-36.638l-.249,0a29.794,29.794,0,0,0-4.52-10.469A1.606,1.606,0,0,0,82.352,15,26.606,26.606,0,0,1,86.633,25.6a1.606,1.606,0,0,0,1.731,1.33c.5-.045.962-.068,1.412-.068a15.107,15.107,0,1,1,0,30.214H25.4A22.192,22.192,0,1,1,35.864,15.311a1.605,1.605,0,0,0,2.077-.5A26.935,26.935,0,0,1,78.4,10.4a1.606,1.606,0,0,0,2.185-2.355,30.146,30.146,0,0,0-44.458,3.809A25.406,25.406,0,1,0,25.4,60.291h4.683v10.2a2.707,2.707,0,0,1-2.7,2.7H22.835a6.306,6.306,0,1,0,0,3.212h4.547A5.923,5.923,0,0,0,33.3,70.487v-10.2H42.9v9.421a1.606,1.606,0,1,0,3.212,0V60.291H56.77V96.552a5.923,5.923,0,0,0,5.916,5.916h4.547a6.306,6.306,0,1,0,0-3.212H62.687a2.707,2.707,0,0,1-2.7-2.7V60.291h12.6V79.46A5.922,5.922,0,0,0,78.5,85.376H90.115a6.306,6.306,0,1,0,0-3.212H78.5a2.706,2.706,0,0,1-2.7-2.7V60.291Zm-73.038,17.6A3.094,3.094,0,1,1,19.831,74.8,3.1,3.1,0,0,1,16.737,77.891ZM73.332,97.768a3.094,3.094,0,1,1-3.094,3.094A3.1,3.1,0,0,1,73.332,97.768ZM96.213,80.676a3.094,3.094,0,1,1-3.094,3.094A3.1,3.1,0,0,1,96.213,80.676Zm0,0"/>
      <path id="Trazado_154762" data-name="Trazado 154762" d="M114.353,353a1.605,1.605,0,0,0-1.606,1.606v11.447a2.707,2.707,0,0,1-2.7,2.705h-9.1a6.307,6.307,0,1,0,0,3.212h9.105a5.923,5.923,0,0,0,5.915-5.917V354.606A1.606,1.606,0,0,0,114.353,353ZM94.842,373.457a3.094,3.094,0,1,1,3.093-3.094A3.1,3.1,0,0,1,94.842,373.457Zm0,0" transform="translate(-69.843 -278.474)"/>
    </g>
    <rect id="Rectángulo_31745" data-name="Rectángulo 31745" width="188" height="165" transform="translate(-8528 -1874)" fill="none"/>
  </g>
</svg>
