<svg xmlns="http://www.w3.org/2000/svg" width="188" height="165" viewBox="0 0 188 165">
  <g id="Grupo_85600" data-name="Grupo 85600" transform="translate(11654 6411)">
    <g id="documento" transform="translate(-11626.191 -6391.458)">
      <g id="Grupo_85532" data-name="Grupo 85532" transform="translate(5.615 2.507)">
        <path id="Trazado_154678" data-name="Trazado 154678" d="M111.8,381.055h0a5.048,5.048,0,0,1,5.186,4.864v20.429a5.048,5.048,0,0,1-5.186,4.864h0a5.047,5.047,0,0,1-5.186-4.864V385.919A5.048,5.048,0,0,1,111.8,381.055Z" transform="translate(-83.298 -288.509)" fill="#3c9fd7"/>
        <path id="Trazado_154679" data-name="Trazado 154679" d="M41.684,217.146A28.526,28.526,0,1,0,13.158,188.62,28.581,28.581,0,0,0,41.684,217.146Z" transform="translate(-13.158 -122.666)" fill="#ffce34"/>
        <path id="Trazado_154680" data-name="Trazado 154680" d="M68.084,234.772A19.752,19.752,0,1,0,48.332,215.02,19.79,19.79,0,0,0,68.084,234.772Z" transform="translate(-39.558 -149.066)" fill="#7ffff5"/>
        <path id="Trazado_154681" data-name="Trazado 154681" d="M218.147,58.606a28.532,28.532,0,0,1,0,34.8v11a2.786,2.786,0,0,0,2.8,2.755h64.417a2.786,2.786,0,0,0,2.8-2.755V38.871l-20.386-.535.02-28.286H220.948a2.786,2.786,0,0,0-2.8,2.754Z" transform="translate(-167.013 -10.05)" fill="#f0f0fb"/>
        <path id="Trazado_154682" data-name="Trazado 154682" d="M437.5,38.871v-.219L417.17,10.05h-.033l-.02,28.286Z" transform="translate(-316.351 -10.05)" fill="#bfbfcf"/>
      </g>
      <path id="Trazado_154683" data-name="Trazado 154683" d="M107.728,0H59.55a5.29,5.29,0,0,0-5.307,5.261V44.838A31.027,31.027,0,1,0,26.419,98.521v21.825a7.7,7.7,0,0,0,15.387,0V98.535a30.979,30.979,0,0,0,12.436-6.452v4.771a5.29,5.29,0,0,0,5.307,5.261h64.418a5.291,5.291,0,0,0,5.307-5.261V30.309Zm.5,9.363L122.2,29.007H108.233ZM36.792,120.346a2.7,2.7,0,0,1-5.359,0V99.375c.893.078,1.8.119,2.708.119.893,0,1.777-.04,2.651-.115v20.967ZM34.141,94.48A26.019,26.019,0,1,1,60.16,68.461,26.049,26.049,0,0,1,34.141,94.48ZM123.966,97.1H59.549a.284.284,0,0,1-.294-.248V86.667a30.964,30.964,0,0,0,0-36.412V5.261a.284.284,0,0,1,.294-.247h44.565V30.256A2.88,2.88,0,0,0,107,33.125H124.26V96.854A.284.284,0,0,1,123.966,97.1Z"/>
      <path id="Trazado_154684" data-name="Trazado 154684" d="M268.6,127.211h11.661a2.507,2.507,0,0,0,0-5.014H268.6a2.507,2.507,0,1,0,0,5.014Z" transform="translate(-197.383 -91.715)"/>
      <path id="Trazado_154685" data-name="Trazado 154685" d="M308.046,162.4H268.6a2.507,2.507,0,1,0,0,5.014h39.448a2.507,2.507,0,0,0,0-5.014Z" transform="translate(-197.383 -121.887)"/>
      <path id="Trazado_154686" data-name="Trazado 154686" d="M308.046,202.595H268.6a2.507,2.507,0,1,0,0,5.014h39.448a2.507,2.507,0,0,0,0-5.014Z" transform="translate(-197.383 -152.058)"/>
      <path id="Trazado_154687" data-name="Trazado 154687" d="M308.046,242.794H268.6a2.507,2.507,0,1,0,0,5.014h39.448a2.507,2.507,0,0,0,0-5.014Z" transform="translate(-197.383 -182.23)"/>
      <path id="Trazado_154688" data-name="Trazado 154688" d="M288.186,282.993H268.6a2.507,2.507,0,1,0,0,5.014h19.588a2.507,2.507,0,1,0,0-5.014Z" transform="translate(-197.383 -212.401)"/>
      <path id="Trazado_154689" data-name="Trazado 154689" d="M380.071,282.993h-.134a2.507,2.507,0,1,0,0,5.014h.134a2.507,2.507,0,1,0,0-5.014Z" transform="translate(-280.949 -212.401)"/>
      <path id="Trazado_154690" data-name="Trazado 154690" d="M60.541,185.218A22.259,22.259,0,1,0,82.8,207.477,22.284,22.284,0,0,0,60.541,185.218Zm0,39.5a17.245,17.245,0,1,1,17.245-17.245A17.264,17.264,0,0,1,60.541,224.722Z" transform="translate(-26.4 -139.016)"/>
      <path id="Trazado_154691" data-name="Trazado 154691" d="M86.72,227.14a12.268,12.268,0,0,0-8.528,11.71c0,.2.005.409.016.613a2.506,2.506,0,0,0,2.5,2.377c.044,0,.088,0,.131,0a2.507,2.507,0,0,0,2.374-2.633c-.006-.118-.009-.236-.009-.354a7.269,7.269,0,0,1,5.053-6.938,2.507,2.507,0,1,0-1.539-4.771Z" transform="translate(-56.355 -170.39)"/>
      <path id="Trazado_154692" data-name="Trazado 154692" d="M94.074,293a2.507,2.507,0,1,0-3.545,3.545l.044.044a2.507,2.507,0,0,0,3.544-3.546Z" transform="translate(-65.062 -219.363)"/>
    </g>
    <rect id="Rectángulo_31740" data-name="Rectángulo 31740" width="188" height="165" transform="translate(-11654 -6411)" fill="none"/>
  </g>
</svg>
