<svg xmlns="http://www.w3.org/2000/svg" width="188" height="165" viewBox="0 0 188 165">
  <g id="Grupo_85602" data-name="Grupo 85602" transform="translate(8886 6075)">
    <g id="tablero-de-dibujo" transform="translate(-8853 -6051.313)">
      <g id="Grupo_85551" data-name="Grupo 85551" transform="translate(1.886 58.475)">
        <path id="Trazado_154701" data-name="Trazado 154701" d="M427.773,392H424v15.09h3.773a3.783,3.783,0,0,0,3.773-3.773v-7.545A3.783,3.783,0,0,0,427.773,392Zm0,0" transform="translate(-325.914 -358.047)" fill="#fcd770"/>
        <path id="Trazado_154702" data-name="Trazado 154702" d="M427.773,248H424v15.09h3.773a3.783,3.783,0,0,0,3.773-3.773v-7.545A3.783,3.783,0,0,0,427.773,248Zm0,0" transform="translate(-325.914 -248)" fill="#fcd770"/>
        <path id="Trazado_154703" data-name="Trazado 154703" d="M8,251.773v7.545a3.783,3.783,0,0,0,3.773,3.773h3.773V248H11.773A3.783,3.783,0,0,0,8,251.773Zm0,0" transform="translate(-8 -248)" fill="#fcd770"/>
      </g>
      <path id="Trazado_154704" data-name="Trazado 154704" d="M130.541,265.043v7.545A7.543,7.543,0,0,1,123,280.133H47.545A7.543,7.543,0,0,1,40,272.588V223.545A7.543,7.543,0,0,1,47.545,216H55.09v7.545H49.431a1.892,1.892,0,0,0-1.886,1.886V270.7a1.892,1.892,0,0,0,1.886,1.886H121.11A1.892,1.892,0,0,0,123,270.7V225.431a1.892,1.892,0,0,0-1.886-1.886H70.18V216H123a7.543,7.543,0,0,1,7.545,7.545Zm0,0" transform="translate(-30.569 -165.07)" fill="#b4dd7f"/>
      <path id="Trazado_154705" data-name="Trazado 154705" d="M145.565,248H94.635v26.408l-4.81,9.639a3.068,3.068,0,0,1-5.471,0l-4.81-9.639V248H73.886A1.892,1.892,0,0,0,72,249.886v45.271a1.892,1.892,0,0,0,1.886,1.886h71.679a1.892,1.892,0,0,0,1.886-1.886V249.886A1.892,1.892,0,0,0,145.565,248Zm0,0" transform="translate(-55.023 -189.525)" fill="#e6e9ed"/>
      <path id="Trazado_154706" data-name="Trazado 154706" d="M311.09,367.545A7.545,7.545,0,1,1,303.545,360,7.545,7.545,0,0,1,311.09,367.545Zm0,0" transform="translate(-226.208 -275.118)" fill="#ff826e"/>
      <path id="Trazado_154707" data-name="Trazado 154707" d="M127.545,56v7.545H120V56Zm0,0" transform="translate(-91.706 -42.796)" fill="#aab2bd"/>
      <path id="Trazado_154708" data-name="Trazado 154708" d="M119.09,360l-4.81,9.639a3.068,3.068,0,0,1-5.471,0L104,360Zm0,0" transform="translate(-79.478 -275.118)" fill="#838f9b"/>
      <path id="Trazado_154709" data-name="Trazado 154709" d="M119.09,162.408v26.408H104V136h15.09Zm0,0" transform="translate(-79.478 -103.933)" fill="#fcd770"/>
      <path id="Trazado_154710" data-name="Trazado 154710" d="M119.09,91.773v7.545H104V91.773A3.783,3.783,0,0,1,107.773,88h7.545A3.783,3.783,0,0,1,119.09,91.773Zm0,0" transform="translate(-79.478 -67.251)" fill="#ccd1d9"/>
      <path id="Trazado_154711" data-name="Trazado 154711" d="M111.29,32.067H88.655v7.545h3.773V35.839H111.29a1.889,1.889,0,0,1,1.886,1.886V62.247a1.889,1.889,0,0,1-1.886,1.886H109.4V62.247a5.666,5.666,0,0,0-5.659-5.659h-2.077a9.447,9.447,0,0,0-9.241-7.545H41.5V24.522a5.651,5.651,0,0,0-3.773-5.312V11.318H33.953V7.545a3.776,3.776,0,0,1,3.773-3.773H73.565a3.773,3.773,0,0,1,0,7.545h-13.2A5.666,5.666,0,0,0,54.7,16.976v13.2a5.666,5.666,0,0,0,5.659,5.659h9.431V28.294H66.02v3.773H60.361a1.889,1.889,0,0,1-1.886-1.886v-13.2a1.889,1.889,0,0,1,1.886-1.886h13.2a7.545,7.545,0,1,0,0-15.09H37.726A7.553,7.553,0,0,0,30.18,7.545v3.773H26.408V19.21a5.651,5.651,0,0,0-3.773,5.312V49.043H16.976a9.449,9.449,0,0,0-9.241,7.545H5.659A5.666,5.666,0,0,0,0,62.247v7.545a5.666,5.666,0,0,0,5.659,5.659H7.545v32.067a9.442,9.442,0,0,0,9.431,9.431H92.428a9.449,9.449,0,0,0,9.241-7.545h2.077a5.666,5.666,0,0,0,5.659-5.659V96.2a5.666,5.666,0,0,0-5.659-5.659h-1.886V75.451h1.886a5.666,5.666,0,0,0,5.659-5.659V67.906h1.886a5.666,5.666,0,0,0,5.659-5.659V37.726A5.666,5.666,0,0,0,111.29,32.067ZM5.659,71.679a1.889,1.889,0,0,1-1.886-1.886V62.247a1.889,1.889,0,0,1,1.886-1.886H7.545V71.679ZM31.023,93.669l-3.449-6.9H36.56l-3.449,6.9A1.21,1.21,0,0,1,31.023,93.669ZM37.726,83H26.408V33.953H37.726ZM27.649,95.357a4.916,4.916,0,0,0,4.417,2.729H58.475a5.659,5.659,0,1,0,0-11.318H54.7A1.886,1.886,0,1,1,54.7,83H66.02a5.659,5.659,0,1,0,0-11.318H62.247a1.886,1.886,0,1,1,0-3.773H86.769V64.133H62.247a5.659,5.659,0,0,0,0,11.318H66.02a1.886,1.886,0,0,1,0,3.773H54.7a5.659,5.659,0,1,0,0,11.318h3.773a1.886,1.886,0,0,1,0,3.773H37.005L41.5,85.327V60.361H90.541v45.271H18.863V60.361h3.773V85.327Zm6.3-80.267v3.773H30.18V15.09Zm-5.659,7.545h7.545a1.889,1.889,0,0,1,1.886,1.886V30.18H26.408V24.522A1.889,1.889,0,0,1,28.294,22.635Zm69.792,84.882a5.666,5.666,0,0,1-5.659,5.659H16.976a5.666,5.666,0,0,1-5.659-5.659V58.475a5.666,5.666,0,0,1,5.659-5.659h5.659v3.773H18.863a3.776,3.776,0,0,0-3.773,3.773v45.271a3.776,3.776,0,0,0,3.773,3.773H90.541a3.776,3.776,0,0,0,3.773-3.773V60.361a3.776,3.776,0,0,0-3.773-3.773H41.5V52.816H92.428a5.666,5.666,0,0,1,5.659,5.659Zm5.659-1.886h-1.886v-3.773h3.773v1.886A1.889,1.889,0,0,1,103.745,105.632Zm0-11.318a1.889,1.889,0,0,1,1.886,1.886v1.886h-3.773V94.314Zm1.886-24.522a1.889,1.889,0,0,1-1.886,1.886h-1.886V60.361h1.886a1.889,1.889,0,0,1,1.886,1.886Zm0,0"/>
      <path id="Trazado_154712" data-name="Trazado 154712" d="M344,120h3.773v11.318H344Zm0,0" transform="translate(-262.89 -91.706)"/>
      <path id="Trazado_154713" data-name="Trazado 154713" d="M312,120h3.773v11.318H312Zm0,0" transform="translate(-238.435 -91.706)"/>
      <path id="Trazado_154714" data-name="Trazado 154714" d="M297.431,370.863A9.431,9.431,0,1,0,288,361.431,9.443,9.443,0,0,0,297.431,370.863Zm0-15.09a5.659,5.659,0,1,1-5.659,5.659A5.666,5.666,0,0,1,297.431,355.773Zm0,0" transform="translate(-220.094 -269.004)"/>
    </g>
    <rect id="Rectángulo_31742" data-name="Rectángulo 31742" width="188" height="165" transform="translate(-8886 -6075)" fill="none"/>
  </g>
</svg>
