<svg xmlns="http://www.w3.org/2000/svg" width="188" height="165" viewBox="0 0 188 165">
  <g id="Grupo_85603" data-name="Grupo 85603" transform="translate(8600 6075)">
    <g id="XMLID_2603_" transform="translate(-8559 -6052.577)">
      <g id="XMLID_1212_" transform="translate(47.373 33.924)">
        <path id="XMLID_1221_" d="M226.123,293.977v2.891l-12.055,2.644a11.313,11.313,0,0,0-8.889,11.05v22.193h54.489V310.57a11.313,11.313,0,0,0-8.9-11.052l-12.116-2.649v-2.912" transform="translate(-205.179 -260.01)" fill="#5ddef5"/>
        <path id="XMLID_2604_" d="M308.422,306.568l-6.266,16.758-6.266-16.758Z" transform="translate(-274.945 -269.71)" fill="#fff"/>
        <path id="XMLID_1217_" d="M278.965,146.929h0A13.273,13.273,0,0,0,265.692,160.2v3.2h6.49a14.584,14.584,0,0,0,11.177-5.216h0l8.879,5.216v-3.2A13.273,13.273,0,0,0,278.965,146.929Z" transform="translate(-251.72 -146.929)" fill="#afabb0"/>
        <path id="XMLID_1216_" d="M280.5,198.269a14.581,14.581,0,0,1-8.318,2.608h-6.49v5.638a13.273,13.273,0,0,0,13.273,13.273h0a13.273,13.273,0,0,0,13.273-13.273v-5.638l-4.439-2.608-4.439-2.608Z" transform="translate(-251.721 -184.409)" fill="#fed2a4"/>
      </g>
      <rect id="XMLID_2502_" width="113.62" height="9.232" transform="translate(2.13 106.519)" fill="#ffbe52"/>
      <circle id="XMLID_2195_" cx="19.059" cy="19.059" r="19.059" transform="translate(2.309 2.309)" fill="#93e7f8"/>
      <rect id="XMLID_2533_" width="49.709" height="36.927" transform="translate(2.13 52.549)" fill="#c7c4c8"/>
      <path id="XMLID_1029_" d="M107.235,334.475H98V311.618A4.618,4.618,0,0,1,102.618,307h0a4.618,4.618,0,0,1,4.618,4.618Z" transform="translate(-75.373 -236.118)" fill="#5ddef5"/>
      <path id="XMLID_1028_" d="M90.012,434.312H66v-3.463A4.849,4.849,0,0,1,70.849,426H85.164a4.849,4.849,0,0,1,4.849,4.849Z" transform="translate(-50.761 -327.642)" fill="#5ddef5"/>
      <rect id="XMLID_1222_" width="29.115" height="9.232" transform="translate(86.635 97.287)" fill="#fff"/>
      <rect id="XMLID_1227_" width="29.115" height="9.232" transform="translate(86.635 88.056)" fill="#e8e7e9"/>
      <rect id="XMLID_1229_" width="29.115" height="9.232" transform="translate(86.635 78.824)" fill="#fff"/>
      <g id="XMLID_636_">
        <path id="XMLID_1699_" d="M21.367,42.735A21.367,21.367,0,1,0,0,21.367,21.392,21.392,0,0,0,21.367,42.735Zm0-38.117a16.75,16.75,0,1,1-16.75,16.75A16.769,16.769,0,0,1,21.367,4.618Z"/>
        <path id="XMLID_1701_" d="M86.743,52.592A2.309,2.309,0,1,0,90,49.322l-2.772-2.763V36.309a2.309,2.309,0,1,0-4.618,0V47.517a2.31,2.31,0,0,0,.679,1.635Z" transform="translate(-63.539 -26.15)"/>
        <path id="XMLID_1706_" d="M115.9,181.968h-14.21a13.635,13.635,0,0,0-8.236-5.478l-10.151-2.22A15.579,15.579,0,0,0,90.2,161.343v-8.833a15.582,15.582,0,1,0-31.163,0v8.833a15.579,15.579,0,0,0,6.875,12.917l-10.144,2.226c-.433.1-.859.212-1.278.347V157.725a2.309,2.309,0,0,0-2.309-2.309H36.48a2.309,2.309,0,0,0,0,4.618H49.871v32.324h-15.7V180.814a6.927,6.927,0,0,0-13.853,0v11.544H4.618V160.034H18.009a2.309,2.309,0,0,0,0-4.618H2.309A2.309,2.309,0,0,0,0,157.725v36.942a2.309,2.309,0,0,0,2.309,2.309H20.318v4.387h-.231a7.165,7.165,0,0,0-7.157,7.157v1.154H2.309A2.309,2.309,0,0,0,0,211.983v9.235a2.309,2.309,0,0,0,2.309,2.309H115.9a2.309,2.309,0,0,0,2.309-2.309V184.277A2.309,2.309,0,0,0,115.9,181.968Zm-14.043,27.706H88.66v-4.618H113.6v4.618Zm11.734-9.235H88.66v-4.618H113.6Zm0-9.235H88.66v-4.618H113.6ZM63.654,152.511a10.964,10.964,0,0,1,21.895-.859L80.181,148.5a2.309,2.309,0,0,0-2.939.508,12.244,12.244,0,0,1-9.407,4.391H63.654v-.887Zm0,5.5h4.181a16.845,16.845,0,0,0,11.592-4.6l6.155,3.616v4.316a10.964,10.964,0,1,1-21.928,0v-3.329ZM78.234,176.5l-3.651,9.765-3.658-9.783a15.5,15.5,0,0,0,7.31.018ZM52.18,196.976a2.309,2.309,0,0,0,2.309-2.309V181.824A8.981,8.981,0,0,1,56.757,181l10.1-2.216,5.565,14.882a2.309,2.309,0,0,0,4.325,0l5.565-14.883L92.472,181a8.988,8.988,0,0,1,2.517.967H86.352a2.309,2.309,0,0,0-2.309,2.309v25.4H49.682v-12.7h2.5Zm-7.116,0v12.7h-3.5V208.52a7.165,7.165,0,0,0-7.157-7.157h-.231v-4.387ZM24.936,180.814a2.309,2.309,0,1,1,4.618,0v20.549H24.936ZM17.547,208.52a2.543,2.543,0,0,1,2.54-2.54H34.4a2.543,2.543,0,0,1,2.54,2.54v1.154H17.547ZM113.6,218.91H4.618v-4.618H113.6Z" transform="translate(0 -105.314)"/>
        <path id="XMLID_1768_" d="M108.676,217.676a2.307,2.307,0,1,0,1.632-.676A2.326,2.326,0,0,0,108.676,217.676Z" transform="translate(-83.064 -166.898)"/>
      </g>
    </g>
    <rect id="Rectángulo_31743" data-name="Rectángulo 31743" width="188" height="165" transform="translate(-8600 -6075)" fill="none"/>
  </g>
</svg>
