<svg xmlns="http://www.w3.org/2000/svg" width="63" height="63" viewBox="0 0 63 63">
  <g id="Grupo_85592" data-name="Grupo 85592" transform="translate(11145 8985)">
    <rect id="Rectángulo_31680" data-name="Rectángulo 31680" width="63" height="63" transform="translate(-11145 -8985)" fill="none"/>
    <g id="documento2" transform="translate(-11134.821 -8976.183)">
      <rect id="Rectángulo_31656" data-name="Rectángulo 31656" width="1.446" height="1.446" transform="translate(20.96 36.137)" fill="#8f52f5"/>
      <path id="Trazado_154521" data-name="Trazado 154521" d="M7.881,62.321v6.5H6.435a.723.723,0,0,0-.723.723v2.168A2.891,2.891,0,0,0,8.6,74.608H43.3a2.891,2.891,0,0,0,2.891-2.891V69.549a.723.723,0,0,0-.723-.723H44.018V42.807a2.891,2.891,0,0,0-2.891-2.891h-6.5V37.025a2.891,2.891,0,0,0-2.891-2.891H10.772a2.891,2.891,0,0,0-2.891,2.891V57.262H4.99a.723.723,0,0,0-.723.723V59.43a2.891,2.891,0,0,0,2.891,2.891h.723Zm36.86,9.4A1.445,1.445,0,0,1,43.3,73.162H8.6a1.445,1.445,0,0,1-1.446-1.446V70.271H19.145l1.234,1.234a.721.721,0,0,0,.511.212H31.009a.721.721,0,0,0,.511-.212l1.234-1.234H44.741ZM41.127,41.361a1.445,1.445,0,0,1,1.446,1.446V68.826H32.454a.721.721,0,0,0-.511.212l-1.234,1.234h-9.52l-1.234-1.234a.721.721,0,0,0-.511-.212H9.326v-6.5h2.168v2.891a.723.723,0,0,0,.723.723H39.682a.723.723,0,0,0,.723-.723V44.252a.723.723,0,0,0-.723-.723H34.622V41.361ZM30.286,59.43V48.589h6.5V47.143H34.622V44.975h4.336V64.489H12.94V62.321H27.395A2.891,2.891,0,0,0,30.286,59.43Zm2.891-22.405V47.143H30.286V37.025a1.445,1.445,0,1,1,2.891,0Zm-23.851,0a1.445,1.445,0,0,1,1.446-1.446H29.242a2.861,2.861,0,0,0-.4,1.446V59.43a1.446,1.446,0,1,1-2.891,0V57.985a.723.723,0,0,0-.723-.723H9.326ZM5.712,59.43v-.723H24.5v.723a2.868,2.868,0,0,0,.388,1.446H7.158A1.445,1.445,0,0,1,5.712,59.43Z" transform="translate(-4.267 -31.243)" fill="#8f52f5"/>
      <path id="Trazado_154522" data-name="Trazado 154522" d="M91.046,81.136h1.445V79.691h1.446V78.246H92.491V76.8H91.046v1.446H89.6v1.445h1.446Z" transform="translate(-82.373 -70.295)" fill="#8f52f5"/>
      <rect id="Rectángulo_31657" data-name="Rectángulo 31657" width="1.446" height="1.446" transform="translate(20.96 6.505)" fill="#8f52f5"/>
      <rect id="Rectángulo_31658" data-name="Rectángulo 31658" width="1.446" height="1.446" transform="translate(20.96 9.396)" fill="#8f52f5"/>
      <rect id="Rectángulo_31659" data-name="Rectángulo 31659" width="1.446" height="1.446" transform="translate(8.673 13.009)" fill="#8f52f5"/>
      <rect id="Rectángulo_31660" data-name="Rectángulo 31660" width="10.841" height="1.446" transform="translate(11.564 13.009)" fill="#8f52f5"/>
      <rect id="Rectángulo_31661" data-name="Rectángulo 31661" width="15.178" height="1.446" transform="translate(7.227 15.9)" fill="#8f52f5"/>
      <rect id="Rectángulo_31662" data-name="Rectángulo 31662" width="15.178" height="1.446" transform="translate(7.227 18.791)" fill="#8f52f5"/>
      <rect id="Rectángulo_31663" data-name="Rectángulo 31663" width="12.287" height="1.446" transform="translate(7.227 21.682)" fill="#8f52f5"/>
      <rect id="Rectángulo_31664" data-name="Rectángulo 31664" width="1.446" height="13.732" transform="translate(41.197 19.514)" fill="#8f52f5"/>
      <rect id="Rectángulo_31665" data-name="Rectángulo 31665" width="1.446" height="1.446" transform="translate(41.197 16.623)" fill="#8f52f5"/>
      <path id="Trazado_154523" data-name="Trazado 154523" d="M12.8,15.9h1.446V5.059a3.618,3.618,0,0,1,3.614-3.614h.723V0h-.723A5.065,5.065,0,0,0,12.8,5.059Z" transform="translate(-12.077)" fill="#8f52f5"/>
      <rect id="Rectángulo_31666" data-name="Rectángulo 31666" width="1.446" height="1.446" transform="translate(0.723 17.346)" fill="#8f52f5"/>
    </g>
  </g>
</svg>
