<svg xmlns="http://www.w3.org/2000/svg" width="63" height="63" viewBox="0 0 63 63">
  <g id="Grupo_85593" data-name="Grupo 85593" transform="translate(10833 8985)">
    <rect id="Rectángulo_31680" data-name="Rectángulo 31680" width="63" height="63" transform="translate(-10833 -8985)" fill="none"/>
    <path id="llave" d="M6.633,10.263V12.53H3.685A3.69,3.69,0,0,0,0,16.215V37.59a3.69,3.69,0,0,0,3.685,3.685h5.9v2.948H6.633V45.7H33.167V44.223H30.219V41.275h5.9A3.69,3.69,0,0,0,39.8,37.59V16.215a3.69,3.69,0,0,0-3.685-3.685H33.167V10.263L30.42,9.9a10.988,10.988,0,0,0-.7-1.688l1.682-2.2L27.158,1.762l-2.2,1.682a10.948,10.948,0,0,0-1.688-.7L22.9,0H16.9l-.366,2.747a10.978,10.978,0,0,0-1.688.7l-2.2-1.682L8.4,6.01l1.682,2.2A10.948,10.948,0,0,0,9.38,9.9ZM28.745,44.223H11.056V41.275H28.745Zm9.582-6.633A2.214,2.214,0,0,1,36.116,39.8H3.685A2.214,2.214,0,0,1,1.474,37.59v-.737H38.327ZM36.116,14a2.214,2.214,0,0,1,2.211,2.211V35.378H1.474V16.215A2.214,2.214,0,0,1,3.685,14ZM19.9,8.108a5.163,5.163,0,0,0-5.1,4.422H13.31a6.631,6.631,0,0,1,13.18,0H25A5.163,5.163,0,0,0,19.9,8.108Zm3.611,4.422H16.29a3.685,3.685,0,0,1,7.222,0ZM10.35,6.14l2.423-2.423L14.717,5.2l.425-.245a9.518,9.518,0,0,1,2.249-.929l.473-.128.323-2.428h3.427L21.937,3.9l.473.128a9.518,9.518,0,0,1,2.249.929l.425.245,1.943-1.487,2.423,2.423L27.964,8.083l.245.425a9.519,9.519,0,0,1,.929,2.249l.128.473,2.427.323v.977H27.971a8.1,8.1,0,0,0-16.14,0H8.108v-.977l2.427-.324.128-.473a9.519,9.519,0,0,1,.929-2.249l.245-.425ZM13.572,25.8l2.211-2.211H32l2.948-2.948L32,17.689H29.914l-.432.432-.432-.432H27.7l-.432.432-.432-.432H25.492l-.432.432-.432-.432H23.28l-.432.432-.432-.432H15.783l-2.211-2.211H8.45L5.01,20.637,8.45,25.8ZM9.239,16.952h3.723l2.211,2.211h6.633l1.042,1.042,1.042-1.042h.127l1.042,1.042L26.1,19.163h.127l1.042,1.042,1.042-1.042h.127l1.042,1.042,1.042-1.042h.864l1.474,1.474-1.474,1.474H15.173l-2.211,2.211H9.239L6.782,20.637Zm1.817,5.9a2.211,2.211,0,1,0-2.211-2.211A2.214,2.214,0,0,0,11.056,22.849Zm0-2.948a.737.737,0,1,1-.737.737A.738.738,0,0,1,11.056,19.9ZM5.9,27.271H7.371V33.9H5.9Zm20.637,0h1.474V33.9H26.534Zm-5.9,0h1.474V33.9H20.637Zm-5.9,0h1.474V33.9H14.741Zm17.689,0H33.9V33.9H32.43ZM8.845,32.43h1.474V33.9H8.845Zm0-5.159h1.474v3.685H8.845Zm2.948,5.159h1.474V33.9H11.793Zm0-5.159h1.474v3.685H11.793ZM29.482,32.43h1.474V33.9H29.482Zm0-5.159h1.474v3.685H29.482ZM17.689,32.43h1.474V33.9H17.689Zm0-5.159h1.474v3.685H17.689Zm5.9,5.159H25.06V33.9H23.586Zm0-5.159H25.06v3.685H23.586Zm0,0" transform="translate(-10821 -8977)" fill="#8f52f5"/>
  </g>
</svg>
