<svg xmlns="http://www.w3.org/2000/svg" width="63" height="63" viewBox="0 0 63 63">
  <g id="Grupo_85591" data-name="Grupo 85591" transform="translate(11447 8985)">
    <path id="control-de-calidad" d="M32.888,21.266l-.457-1.515c.5-.15,1-.32,1.5-.507l.555,1.482C33.955,20.926,33.418,21.107,32.888,21.266Zm-3.395,2.909V22.047c.587-.094,1.177-.21,1.762-.344L30.9,20.16c-.763.177-1.536.317-2.3.417l-.689.091v3.507c0,.212,0,.423.016.634l1.581-.081c-.01-.184-.014-.368-.014-.554ZM20,15.247A4.749,4.749,0,1,1,15.247,10.5,4.754,4.754,0,0,1,20,15.247Zm-1.583,0a3.166,3.166,0,1,0-3.166,3.166A3.169,3.169,0,0,0,18.413,15.247ZM46.12,17.621l.787,0v6.55A16.427,16.427,0,0,1,36.1,39.572l-.27.1-.27-.1a16.427,16.427,0,0,1-10.811-15.4v-6.55l.787,0a21.154,21.154,0,0,0,9.917-2.541l.378-.2.378.2a21.16,21.16,0,0,0,9.916,2.541Zm-.8,1.565a22.758,22.758,0,0,1-9.5-2.515,22.755,22.755,0,0,1-9.5,2.515v4.99a14.839,14.839,0,0,0,9.5,13.808,14.841,14.841,0,0,0,9.5-13.808ZM34.243,26.792l6.332-6.332,3.494,3.494-9.826,9.826L29.166,28.7l3.494-3.494ZM40.575,22.7,34.243,29.03,32.66,27.447,31.4,28.7l2.838,2.838,7.587-7.587Zm5.676-8.243h3.822v9.72a19.521,19.521,0,0,1-3.918,11.69l2.663,9.763-3.908-.977-2.958,4.93L39.3,41.619a19.269,19.269,0,0,1-3.248,1.3l-.223.066-.223-.066a19.269,19.269,0,0,1-3.248-1.3L29.7,49.581l-2.958-4.93-3.908.977L25.5,35.865a19.594,19.594,0,0,1-3.756-9.324l-.365-.226a12.581,12.581,0,0,1-2.637,1.093l-.491,2.085h-6l-.491-2.086a12.581,12.581,0,0,1-2.637-1.093L7.295,27.444,3.05,23.2l1.129-1.823a12.581,12.581,0,0,1-1.093-2.637L1,18.248v-6l2.086-.491A12.581,12.581,0,0,1,4.179,9.118L3.05,7.295,7.295,3.05,9.118,4.179a12.581,12.581,0,0,1,2.637-1.093L12.246,1h6l.491,2.086a12.581,12.581,0,0,1,2.637,1.093L23.2,3.05l4.245,4.245L26.315,9.118a12.581,12.581,0,0,1,1.093,2.637l2.086.491V13.98a17.891,17.891,0,0,0,5.866-2.54l.436-.29.465.27a17.922,17.922,0,0,0,9.99,3.036ZM21.6,24.59c0-.139-.017-.275-.017-.415V22.316a9.5,9.5,0,1,1,3.126-7.86h.7a18.006,18.006,0,0,0,2.51-.18V13.5l-1.8-.423L26,12.6a10.985,10.985,0,0,0-1.28-3.089L24.465,9.1l.973-1.572L22.966,5.056l-1.572.973-.414-.252A10.985,10.985,0,0,0,17.89,4.5l-.472-.116-.424-1.8H13.5l-.423,1.8L12.6,4.5a10.985,10.985,0,0,0-3.089,1.28L9.1,6.029,7.528,5.056,5.056,7.528,6.029,9.1l-.252.414A10.985,10.985,0,0,0,4.5,12.6l-.116.472-1.8.424v3.5l1.8.423.116.472a10.985,10.985,0,0,0,1.28,3.089l.252.414-.973,1.572,2.472,2.472L9.1,24.464l.414.252A10.985,10.985,0,0,0,12.6,26l.472.116.424,1.8h3.5l.423-1.8L17.89,26a10.985,10.985,0,0,0,3.089-1.28l.414-.252Zm1.525-10.134a7.934,7.934,0,1,0-1.543,5.524V14.455Zm7.827,26.377a19.611,19.611,0,0,1-4.214-3.49l-1.661,6.093L27.5,42.83l1.791,2.985Zm13.969-3.489a19.611,19.611,0,0,1-4.214,3.49l1.661,4.982,1.791-2.985,2.424.605ZM48.49,16.038H46.25a19.463,19.463,0,0,1-10.426-3.014A19.481,19.481,0,0,1,25.4,16.038H23.162v8.137A18.056,18.056,0,0,0,35.826,41.331,18.056,18.056,0,0,0,48.49,24.175Z" transform="translate(-11441 -8978.791)" fill="#8f52f5"/>
    <rect id="Rectángulo_31680" data-name="Rectángulo 31680" width="63" height="63" transform="translate(-11447 -8985)" fill="none"/>
  </g>
</svg>
