<svg xmlns="http://www.w3.org/2000/svg" width="188" height="165" viewBox="0 0 188 165">
  <g id="Grupo_85616" data-name="Grupo 85616" transform="translate(10179 2249)">
    <g id="Grupo_85564" data-name="Grupo 85564" transform="translate(179 12.097)">
      <g id="nota" transform="translate(-10333 -2239)">
        <path id="Trazado_154715" data-name="Trazado 154715" d="M444.765,276.052a6.655,6.655,0,0,0-9.218-1.906l-.557.364,7.31,11.127.557-.364a6.652,6.652,0,0,0,1.909-9.221Z" transform="translate(-328.079 -208.197)" fill="#6addc7"/>
        <path id="Trazado_154716" data-name="Trazado 154716" d="M115.153,58H43.877A7.8,7.8,0,0,0,36,65.821v95.3a7.969,7.969,0,0,0,7.877,8.017h71.276a8.043,8.043,0,0,0,7.962-8.017v-95.3A7.874,7.874,0,0,0,115.153,58ZM53.975,73.519a4.385,4.385,0,1,1,4.385-4.385,4.385,4.385,0,0,1-4.385,4.385Zm16.5,0a4.385,4.385,0,1,1,4.385-4.385,4.385,4.385,0,0,1-4.385,4.385Zm16.507,0a4.382,4.382,0,1,1,3.1-1.283A4.385,4.385,0,0,1,86.986,73.519Zm16.5,0a4.385,4.385,0,1,1,4.385-4.385,4.385,4.385,0,0,1-4.385,4.385Z" transform="translate(-34.416 -49.914)" fill="#cae6ee"/>
        <path id="Trazado_154717" data-name="Trazado 154717" d="M308.291,322.011l-16.985,11.153L287.65,327.6,330.2,299.66l3.654,5.562Z" transform="translate(-219.635 -227.781)" fill="#e75163"/>
        <path id="Trazado_154718" data-name="Trazado 154718" d="M320.008,284.145l-42.552,27.943-3.656-5.565,24.3-15.955,18.254-11.987Z" transform="translate(-209.441 -212.266)" fill="#fb6771"/>
        <path id="Trazado_154719" data-name="Trazado 154719" d="M256.864,384.43l-.169.317-5.905,11.161,13.387-.351Z" transform="translate(-192.505 -290.173)" fill="#c79a83"/>
        <path id="Trazado_154720" data-name="Trazado 154720" d="M82.645,162.9a9.167,9.167,0,1,1-9.165,9.167,9.167,9.167,0,0,1,9.165-9.167Z" transform="translate(-62.002 -127.124)" fill="#81c83d"/>
        <path id="Trazado_154721" data-name="Trazado 154721" d="M82.645,262.9a9.167,9.167,0,1,1-9.165,9.167,9.167,9.167,0,0,1,9.165-9.167Z" transform="translate(-62.002 -200.725)" fill="#81c83d"/>
        <path id="Trazado_154722" data-name="Trazado 154722" d="M82.645,362.9a9.167,9.167,0,1,1-9.165,9.167,9.167,9.167,0,0,1,9.165-9.167Z" transform="translate(-62.002 -274.327)" fill="#ffb206"/>
        <path id="Trazado_154723" data-name="Trazado 154723" d="M43.919,161.119v-95.3A7.8,7.8,0,0,1,51.8,58h-7.92A7.8,7.8,0,0,0,36,65.821v95.3a7.969,7.969,0,0,0,7.877,8.017H51.8A7.969,7.969,0,0,1,43.919,161.119Z" transform="translate(-34.416 -49.914)" fill="#aac8ce"/>
        <g id="Grupo_85562" data-name="Grupo 85562" transform="translate(0 0)">
          <path id="Trazado_154724" data-name="Trazado 154724" d="M173.784,183.168h39.6a1.584,1.584,0,1,0,0-3.168h-39.6a1.584,1.584,0,1,0,0,3.168Z" transform="translate(-134.662 -139.71)" fill="#284268"/>
          <path id="Trazado_154725" data-name="Trazado 154725" d="M96.284,183.665l-3.519,3.364L91.338,185.6a1.584,1.584,0,1,0-2.24,2.24l2.522,2.523a1.584,1.584,0,0,0,2.215.025l4.638-4.435a1.584,1.584,0,1,0-2.189-2.29Z" transform="translate(-73.156 -142.084)" fill="#284268"/>
          <path id="Trazado_154726" data-name="Trazado 154726" d="M78.228,156.9a10.75,10.75,0,1,0,10.75,10.75A10.75,10.75,0,0,0,78.228,156.9Zm0,18.332a7.582,7.582,0,1,1,7.582-7.582,7.582,7.582,0,0,1-7.582,7.582Z" transform="translate(-57.584 -122.708)" fill="#284268"/>
          <path id="Trazado_154727" data-name="Trazado 154727" d="M173.784,283.168h39.6a1.584,1.584,0,1,0,0-3.168h-39.6a1.584,1.584,0,1,0,0,3.168Z" transform="translate(-134.662 -213.311)" fill="#284268"/>
          <path id="Trazado_154728" data-name="Trazado 154728" d="M96.284,283.665l-3.519,3.365L91.338,285.6a1.584,1.584,0,1,0-2.24,2.24l2.522,2.523a1.584,1.584,0,0,0,2.215.025l4.638-4.435a1.584,1.584,0,1,0-2.189-2.29Z" transform="translate(-73.156 -215.685)" fill="#284268"/>
          <path id="Trazado_154729" data-name="Trazado 154729" d="M78.228,256.9a10.75,10.75,0,1,0,10.75,10.75A10.75,10.75,0,0,0,78.228,256.9Zm0,18.332a7.582,7.582,0,1,1,7.582-7.582,7.582,7.582,0,0,1-7.582,7.582Z" transform="translate(-57.584 -196.309)" fill="#284268"/>
          <path id="Trazado_154731" data-name="Trazado 154731" d="M78.228,356.9a10.75,10.75,0,1,0,10.75,10.75A10.75,10.75,0,0,0,78.228,356.9Zm0,18.332a7.582,7.582,0,1,1,7.582-7.582,7.582,7.582,0,0,1-7.582,7.582Z" transform="translate(-57.584 -269.911)" fill="#284268"/>
          <path id="Trazado_154732" data-name="Trazado 154732" d="M173.784,203.168H194.9a1.584,1.584,0,1,0,0-3.168H173.784a1.584,1.584,0,0,0,0,3.168Z" transform="translate(-134.662 -154.43)" fill="#284268"/>
          <path id="Trazado_154733" data-name="Trazado 154733" d="M173.784,303.168H194.9a1.584,1.584,0,1,0,0-3.168H173.784a1.584,1.584,0,1,0,0,3.168Z" transform="translate(-134.662 -228.031)" fill="#284268"/>
          <path id="Trazado_154734" data-name="Trazado 154734" d="M54.584,94.1A1.584,1.584,0,0,0,53,95.684v1.663a1.584,1.584,0,1,0,3.168,0V95.684A1.584,1.584,0,0,0,54.584,94.1Z" transform="translate(-46.928 -76.486)" fill="#284268"/>
          <path id="Trazado_154735" data-name="Trazado 154735" d="M54.584,119.391A1.584,1.584,0,0,0,53,120.975v15.311a1.584,1.584,0,0,0,3.168,0V120.975A1.584,1.584,0,0,0,54.584,119.391Z" transform="translate(-46.928 -95.1)" fill="#284268"/>
          <path id="Trazado_154736" data-name="Trazado 154736" d="M142.792,90.817A8.189,8.189,0,0,0,136.6,92l-16.314,10.714V43.28a9.467,9.467,0,0,0-9.547-9.4h-9.988V28.959a1.584,1.584,0,0,0-3.168,0v4.917H84.117V28.959a1.584,1.584,0,1,0-3.168,0v4.917H67.75V28.959a1.584,1.584,0,1,0-3.168,0v4.917H51.119V28.959a1.584,1.584,0,1,0-3.168,0v4.917H39.46A9.393,9.393,0,0,0,30,43.28v95.3a9.562,9.562,0,0,0,9.46,9.6h71.276a9.636,9.636,0,0,0,9.547-9.6V122.431l25.365-16.657a8.241,8.241,0,0,0-2.855-14.957ZM99.074,43.795a2.8,2.8,0,1,1-2.8,2.8A2.8,2.8,0,0,1,99.074,43.795Zm-16.505,0a2.8,2.8,0,1,1-2.8,2.8,2.8,2.8,0,0,1,2.8-2.8Zm-16.506,0a2.8,2.8,0,1,1-2.8,2.8,2.8,2.8,0,0,1,2.8-2.8Zm-16.505,0a2.8,2.8,0,1,1-2.8,2.8,2.8,2.8,0,0,1,2.8-2.8Zm67.556,94.784a6.465,6.465,0,0,1-6.379,6.435H39.46a6.391,6.391,0,0,1-6.292-6.435V43.28a6.222,6.222,0,0,1,6.292-6.237h8.491v3.8A6.147,6.147,0,0,0,43.578,46.6a5.967,5.967,0,1,0,11.935,0,5.856,5.856,0,0,0-4.394-5.755v-3.8H64.582v3.8A5.893,5.893,0,0,0,60.147,46.6a5.975,5.975,0,1,0,11.95,0,6.124,6.124,0,0,0-4.347-5.755v-3.8h13.2v3.8A6.142,6.142,0,0,0,76.582,46.6a5.966,5.966,0,1,0,11.932,0,5.86,5.86,0,0,0-4.4-5.755v-3.8H97.58v3.8A5.887,5.887,0,0,0,93.15,46.6a5.974,5.974,0,0,0,11.948,0,6.13,6.13,0,0,0-4.351-5.755v-3.8h9.988a6.3,6.3,0,0,1,6.379,6.237v61.514l-5.949,3.907a1.584,1.584,0,1,0,1.739,2.647l23.552-15.467,1.916,2.916L98.469,125l-1.916-2.916,7.5-4.923a1.584,1.584,0,0,0-1.739-2.648L93.5,120.3c-.016.011-.031.024-.047.036-.04.029-.079.057-.118.089-.013.011-.024.023-.036.034H69.122a1.584,1.584,0,0,0,0,3.168H91.511l-1.122,2.119c-.049,0-.1-.007-.148-.007H69.122a1.584,1.584,0,1,0,0,3.168H88.716l-1.831,3.46a1.584,1.584,0,0,0,1.4,2.325h.042l13.386-.351c.032,0,.064-.006.1-.009s.069,0,.1-.01.083-.017.123-.026.06-.012.091-.021a1.568,1.568,0,0,0,.2-.076.5.5,0,0,0,.047-.026,1.587,1.587,0,0,0,.149-.083l.016-.009,14.575-9.571Zm-18.331-7.327-7.832.205,3.554-6.715Zm3.341-.684-.122-.185-1.8-2.731,39.9-26.2,1.916,2.916Zm42.5-28.014-5.479-8.339a5.112,5.112,0,0,1,4.243.128,4.534,4.534,0,0,1,1.049.7,5.088,5.088,0,0,1,.187,7.512Z" transform="translate(-30 -27.375)" fill="#284268"/>
          <g id="Grupo_85563" data-name="Grupo 85563" transform="translate(16.095 93.19)">
            <rect id="Rectángulo_31734" data-name="Rectángulo 31734" width="2.911" height="9.955" rx="1.455" transform="translate(7.039) rotate(45)" fill="#284268"/>
            <rect id="Rectángulo_31735" data-name="Rectángulo 31735" width="2.911" height="9.955" rx="1.455" transform="translate(9.098 7.039) rotate(135)" fill="#284268"/>
          </g>
        </g>
      </g>
    </g>
    <rect id="Rectángulo_31744" data-name="Rectángulo 31744" width="188" height="165" transform="translate(-10179 -2249)" fill="none"/>
  </g>
</svg>
