<svg xmlns="http://www.w3.org/2000/svg" width="188" height="165" viewBox="0 0 188 165">
  <g id="Grupo_85617" data-name="Grupo 85617" transform="translate(8882 2003)">
    <g id="libros" transform="translate(-8845.227 -2012.171)">
      <g id="Grupo_85568" data-name="Grupo 85568" transform="translate(1.688 45.28)">
        <path id="Trazado_154737" data-name="Trazado 154737" d="M130.182,356.825l-4.422,4.425H28.74V336.87h97.47l3.972,3.067a10.957,10.957,0,0,0,0,16.888Z" transform="translate(-23.96 -272.278)" fill="#ecf4ff"/>
        <path id="Trazado_154738" data-name="Trazado 154738" d="M334.616,338.77v11.383a1.9,1.9,0,0,1-2.776,1.688l-6.5-3.369a1.9,1.9,0,0,0-1.749,0l-6.5,3.368a1.9,1.9,0,0,1-2.776-1.688V338.769a1.9,1.9,0,0,1,1.9-1.9h16.5a1.9,1.9,0,0,1,1.9,1.9Z" transform="translate(-245.262 -272.276)" fill="#bac0c9"/>
        <path id="Trazado_154739" data-name="Trazado 154739" d="M130.183,339.936a10.893,10.893,0,0,0-3.83,6.675H28.741v-9.743h97.47Z" transform="translate(-23.961 -272.277)" fill="#bac0c9"/>
        <path id="Trazado_154740" data-name="Trazado 154740" d="M15.38,331.606a8.455,8.455,0,0,0,8.444,8.652h91.589a3.938,3.938,0,1,1,0,7.877H23.824A16.324,16.324,0,0,1,7.5,331.758a16.481,16.481,0,0,1,16.566-16.269h91.346a3.938,3.938,0,0,1,0,7.877H23.982a8.55,8.55,0,0,0-8.6,8.24Z" transform="translate(-7.5 -255.709)" fill="#b7e4fc"/>
        <path id="Trazado_154741" data-name="Trazado 154741" d="M13.786,331.756a16.481,16.481,0,0,1,16.566-16.269H24.066A16.481,16.481,0,0,0,7.5,331.756a16.324,16.324,0,0,0,16.323,16.377h6.286a16.324,16.324,0,0,1-16.323-16.377Z" transform="translate(-7.5 -255.707)" fill="#97ccfa"/>
        <g id="Grupo_85566" data-name="Grupo 85566" transform="translate(5.784 30.067)">
          <path id="Trazado_154742" data-name="Trazado 154742" d="M55.964,221.086l4.025,4.027h88.3V202.924H59.579l-3.615,2.792a9.973,9.973,0,0,1,0,15.37Z" transform="translate(-50.841 -198.544)" fill="#ecf4ff"/>
          <path id="Trazado_154743" data-name="Trazado 154743" d="M55.964,205.716a9.915,9.915,0,0,1,3.486,6.075h88.84v-8.867H59.579Z" transform="translate(-50.841 -198.544)" fill="#bac0c9"/>
          <path id="Trazado_154744" data-name="Trazado 154744" d="M127.83,198.134a7.7,7.7,0,0,1-7.685,7.875H36.786a3.584,3.584,0,1,0,0,7.169h83.359A14.857,14.857,0,0,0,135,198.272a15,15,0,0,0-15.077-14.807H36.786a3.584,3.584,0,1,0,0,7.169H120A7.782,7.782,0,0,1,127.83,198.134Z" transform="translate(-33.202 -183.464)" fill="#f5de87"/>
          <g id="Grupo_85565" data-name="Grupo 85565">
            <path id="Trazado_154745" data-name="Trazado 154745" d="M40.709,287.215a3.581,3.581,0,0,0,3.585,3.585H36.786a3.585,3.585,0,0,1,0-7.17h7.508A3.584,3.584,0,0,0,40.709,287.215Z" transform="translate(-33.201 -261.087)" fill="#f1ce73"/>
            <path id="Trazado_154746" data-name="Trazado 154746" d="M40.709,187.045a3.584,3.584,0,0,0,3.585,3.585H36.786a3.585,3.585,0,0,1,0-7.17h7.508A3.584,3.584,0,0,0,40.709,187.045Z" transform="translate(-33.201 -183.46)" fill="#f1ce73"/>
          </g>
        </g>
        <g id="Grupo_85567" data-name="Grupo 85567" transform="translate(11.434)">
          <path id="Trazado_154747" data-name="Trazado 154747" d="M149.541,87.486l-4.025,4.027H77.638V69.324h68.288l3.615,2.792a9.973,9.973,0,0,0,0,15.37Z" transform="translate(-73.287 -64.944)" fill="#ecf4ff"/>
          <path id="Trazado_154748" data-name="Trazado 154748" d="M149.541,72.116a9.915,9.915,0,0,0-3.486,6.075H77.638V69.324h68.288Z" transform="translate(-73.287 -64.944)" fill="#bac0c9"/>
          <path id="Trazado_154749" data-name="Trazado 154749" d="M65.477,64.534a7.7,7.7,0,0,0,7.685,7.875H136.1a3.584,3.584,0,1,1,0,7.169H73.162a14.857,14.857,0,0,1-14.856-14.9A15,15,0,0,1,73.383,49.866H136.1a3.584,3.584,0,0,1,0,7.169H73.306a7.781,7.781,0,0,0-7.829,7.5Z" transform="translate(-58.306 -49.865)" fill="#dd636e"/>
          <path id="Trazado_154750" data-name="Trazado 154750" d="M68.045,75.222A14.809,14.809,0,0,0,78.55,79.575H73.162A14.857,14.857,0,0,1,58.307,64.669,15,15,0,0,1,73.383,49.861h5.388A15,15,0,0,0,63.694,64.669,14.805,14.805,0,0,0,68.045,75.222Z" transform="translate(-58.306 -49.861)" fill="#da4a54"/>
        </g>
        <path id="Trazado_154751" data-name="Trazado 154751" d="M349.606,259.38v28.392l-10.154-5.259L329.3,287.772V259.38Z" transform="translate(-256.878 -212.227)" fill="#dd636e"/>
        <path id="Trazado_154752" data-name="Trazado 154752" d="M329.3,259.38h20.306v7.2H329.3Z" transform="translate(-256.878 -212.227)" fill="#da4a54"/>
      </g>
      <path id="Trazado_154753" data-name="Trazado 154753" d="M109.6,128.141h-1.048a9.267,9.267,0,0,1,0-13.517H109.6a5.626,5.626,0,1,0,0-11.252h-5.172a16.785,16.785,0,0,0,1.687-1.471,16.428,16.428,0,0,0,4.844-11.752A16.665,16.665,0,0,0,95.8,73.739a5.278,5.278,0,0,0-4.889-7.248H90.02a8.28,8.28,0,0,1,0-12h.893a5.272,5.272,0,0,0,0-10.544H28.2A16.682,16.682,0,0,0,11.435,60.437a16.428,16.428,0,0,0,4.844,11.752,16.784,16.784,0,0,0,1.687,1.471H11.057a5.272,5.272,0,1,0,0,10.544h.891a8.279,8.279,0,0,1,0,12h-.89a5.274,5.274,0,0,0-2.484,9.925,17.966,17.966,0,0,0,9.438,33.265H109.6a5.626,5.626,0,0,0,0-11.253ZM111.851,109a2.254,2.254,0,0,1-2.251,2.251H96.1v-4.5h13.5A2.253,2.253,0,0,1,111.851,109ZM18.667,69.8a13.075,13.075,0,0,1-3.856-9.354A13.3,13.3,0,0,1,28.2,47.325H90.914a1.9,1.9,0,1,1,0,3.792H36.962a1.688,1.688,0,0,0,0,3.376h48.77a11.67,11.67,0,0,0,0,12H27.978a6.007,6.007,0,0,1-6-6.146,6.11,6.11,0,0,1,6.142-5.852h2.088a1.688,1.688,0,1,0,0-3.376H28.122a9.507,9.507,0,0,0-9.517,9.146,9.383,9.383,0,0,0,9.373,9.6H90.914a1.9,1.9,0,0,1,0,3.794H27.978A13.082,13.082,0,0,1,18.667,69.8ZM9.714,80.272a1.9,1.9,0,0,1,1.343-3.236H94.193A13.3,13.3,0,0,1,107.584,90.16a13.165,13.165,0,0,1-11.481,13.1V99.426a9.388,9.388,0,0,0,7.684-9.451,9.5,9.5,0,0,0-9.515-9.147H11.057a1.885,1.885,0,0,1-1.343-.556ZM16.237,84.2H94.272a6.107,6.107,0,0,1,6.14,5.851A6.018,6.018,0,0,1,96.1,95.962v-3.53a1.688,1.688,0,0,0-1.688-1.688H61.03a1.688,1.688,0,0,0,0,3.376H72.422V96.2H16.237a11.67,11.67,0,0,0,0-12ZM75.8,94.12H92.727v23.93l-7.688-3.983a1.688,1.688,0,0,0-1.553,0L75.8,118.05V94.12ZM11.057,99.58H72.422v3.792H11.057a1.9,1.9,0,1,1,0-3.792ZM111.19,135.358a2.235,2.235,0,0,1-1.59.66H18.011A14.637,14.637,0,0,1,3.375,121.334a14.785,14.785,0,0,1,14.878-14.587H72.422v4.5H18.168a10.276,10.276,0,0,0-10.289,9.887,10.145,10.145,0,0,0,10.131,10.381H79.535a1.688,1.688,0,1,0,0-3.376H18.011a6.769,6.769,0,0,1-6.757-6.925,6.88,6.88,0,0,1,6.914-6.592H72.422v6.2a1.688,1.688,0,0,0,2.465,1.5l9.376-4.857,9.376,4.857a1.688,1.688,0,0,0,2.464-1.5v-6.2h8.1a12.644,12.644,0,0,0,0,13.517H86.287a1.688,1.688,0,1,0,0,3.376H109.6a2.249,2.249,0,0,1,1.59,3.841Z" transform="translate(0)"/>
    </g>
    <rect id="Rectángulo_31744" data-name="Rectángulo 31744" width="188" height="165" transform="translate(-8882 -2003)" fill="none"/>
  </g>
</svg>
