<svg xmlns="http://www.w3.org/2000/svg" width="188" height="165" viewBox="0 0 188 165">
  <g id="Grupo_85570" data-name="Grupo 85570" transform="translate(8826 7597)">
    <g id="Page-1" transform="translate(-8790.109 -7575.914)">
      <g id="_048---Error-Searching" data-name="048---Error-Searching" transform="translate(0.914 0.914)">
        <g id="Icons" transform="translate(2.182 2.174)">
          <path id="Shape" d="M97.584,49.3A48.1,48.1,0,0,1,86.155,80.485a47.229,47.229,0,0,1-5.674,5.674A48.291,48.291,0,1,1,97.584,49.3Z" transform="translate(-0.998 -0.994)" fill="#cfd8dc"/>
          <path id="Shape-2" data-name="Shape" d="M26.654,1c-1.006,0-2.012.042-3.018.1A48.279,48.279,0,0,1,57.48,80.479a47.228,47.228,0,0,1-5.674,5.674,48.072,48.072,0,0,1-28.439,11.3c1.089.074,2.181.125,3.288.125A48.1,48.1,0,0,0,57.842,86.153a47.228,47.228,0,0,0,5.674-5.674A48.291,48.291,0,0,0,26.654,1Z" transform="translate(21.641 -0.988)" fill="#9e9e9e"/>
          <circle id="Oval" cx="40.243" cy="40.243" r="40.243" transform="translate(8.052 8.06)" fill="#00bcd4"/>
          <path id="Shape-3" data-name="Shape" d="M26.518,5c-1.018,0-2.012.078-3.018.153a40.2,40.2,0,0,1,0,80.179c1.006.074,2,.153,3.018.153A40.243,40.243,0,0,0,26.518,5Z" transform="translate(21.777 3.06)" fill="#00838f"/>
          <path id="Shape-4" data-name="Shape" d="M71.323,71.323a6.024,6.024,0,0,1-8.531,0l-16.1-16.1a6.036,6.036,0,0,1,8.531-8.531l16.1,16.1a6.036,6.036,0,0,1,0,8.531Z" transform="translate(43.613 43.621)" fill="#ef314c"/>
          <path id="Shape-5" data-name="Shape" d="M69.878,62.863l-16.1-16.1a5.978,5.978,0,0,0-7.278-.932,5.946,5.946,0,0,1,1.241.932l16.1,16.1a6.036,6.036,0,0,1,0,8.531,5.8,5.8,0,0,1-1.248.94,6.024,6.024,0,0,0,7.284-9.471Z" transform="translate(45.059 43.55)" fill="#bb193b"/>
          <path id="Shape-6" data-name="Shape" d="M55.249,49.575a6.006,6.006,0,0,0-5.674,5.674L40.5,46.174A47.228,47.228,0,0,0,46.174,40.5Z" transform="translate(38.983 38.991)" fill="#707070"/>
          <path id="Shape-7" data-name="Shape" d="M33.215,13.945a5.634,5.634,0,0,1,9.9,0L53.333,32.2,63.548,50.447a5.9,5.9,0,0,1-4.95,8.841H17.732a5.9,5.9,0,0,1-4.95-8.841L23,32.2Z" transform="translate(10.129 9.135)" fill="#ffdc00"/>
          <path id="Shape-8" data-name="Shape" d="M51.9,50.441,41.686,32.189,31.468,13.939a5.6,5.6,0,0,0-7.968-2.03,5.706,5.706,0,0,1,1.932,2.03l10.218,18.25L45.865,50.441a5.9,5.9,0,0,1-4.95,8.841h6.036a5.9,5.9,0,0,0,4.95-8.841Z" transform="translate(21.777 9.142)" fill="#fec108"/>
        </g>
        <g id="Layer_11">
          <path id="Shape-9" data-name="Shape" d="M47.255,5A42.255,42.255,0,1,0,89.509,47.255,42.255,42.255,0,0,0,47.255,5Zm0,80.485a38.23,38.23,0,1,1,38.23-38.23A38.23,38.23,0,0,1,47.255,85.485Z" transform="translate(3.222 3.222)"/>
          <path id="Shape-10" data-name="Shape" d="M22.534,14.016a2.012,2.012,0,0,0-2.845-.076A33.9,33.9,0,0,0,9,38.765a2.012,2.012,0,1,0,4.024,0,29.914,29.914,0,0,1,9.431-21.9,2.012,2.012,0,0,0,.078-2.851Z" transform="translate(7.27 11.711)" fill="#fff"/>
          <g id="Grupo_85519" data-name="Grupo 85519">
            <path id="Shape-11" data-name="Shape" d="M103.36,91.979a7.916,7.916,0,0,0-5.087-2.225l-7.334-7.334a50.39,50.39,0,1,0-8.519,8.519L89.675,98.2a7.982,7.982,0,0,0,2.3,5.163l16.1,16.1a8.049,8.049,0,1,0,11.381-11.381ZM51.39,97.669A46.279,46.279,0,1,1,97.669,51.39,46.279,46.279,0,0,1,51.39,97.669Zm40.589-5.69a8.007,8.007,0,0,0-1.207,1.61L85.5,88.325q1.469-1.358,2.829-2.829l5.284,5.284a7.532,7.532,0,0,0-1.63,1.2Zm24.632,24.632a4.119,4.119,0,0,1-5.69,0l-16.1-16.1a4.024,4.024,0,0,1,5.69-5.69l16.1,16.1a4.024,4.024,0,0,1,0,5.69Z" transform="translate(-0.914 -0.914)"/>
            <path id="Shape-12" data-name="Shape" d="M67.31,51.474l-20.433-36.5a7.646,7.646,0,0,0-13.409,0l-20.433,36.5a7.97,7.97,0,0,0,.078,8,7.628,7.628,0,0,0,6.626,3.837H60.606a7.628,7.628,0,0,0,6.626-3.837A7.97,7.97,0,0,0,67.31,51.474Zm-3.549,5.964a3.6,3.6,0,0,1-3.155,1.849H19.739a3.6,3.6,0,0,1-3.155-1.849,3.984,3.984,0,0,1-.04-4l20.435-36.5a3.622,3.622,0,0,1,6.389,0L63.8,53.44A3.984,3.984,0,0,1,63.761,57.438Z" transform="translate(10.304 9.299)"/>
            <path id="Shape-13" data-name="Shape" d="M27.012,17A2.012,2.012,0,0,0,25,19.012V37.121a2.012,2.012,0,1,0,4.024,0V19.012A2.012,2.012,0,0,0,27.012,17Z" transform="translate(23.464 15.367)"/>
            <circle id="Oval-2" data-name="Oval" cx="2.012" cy="2.012" r="2.012" transform="translate(48.464 58.525)"/>
          </g>
        </g>
      </g>
    </g>
    <rect id="Rectángulo_31738" data-name="Rectángulo 31738" width="188" height="165" transform="translate(-8826 -7597)" fill="none"/>
  </g>
</svg>
