<svg xmlns="http://www.w3.org/2000/svg" width="188" height="165" viewBox="0 0 188 165">
  <g id="Grupo_85599" data-name="Grupo 85599" transform="translate(11871 6411)">
    <g id="lista-de-verificacion" transform="translate(-11843 -6399.5)">
      <g id="Grupo_85531" data-name="Grupo 85531" transform="translate(12.25 3.25)">
        <path id="Trazado_154659" data-name="Trazado 154659" d="M15,2h85.5V137H15Z" transform="translate(-6 -2)" fill="#b4fffa"/>
        <path id="Trazado_154660" data-name="Trazado 154660" d="M20,2a9,9,0,0,1,9,9V137H11V11A9,9,0,0,1,20,2Z" transform="translate(-11 -2)" fill="#7d8589"/>
        <path id="Trazado_154661" data-name="Trazado 154661" d="M21.347,12.125V24.117L95.012,2,17.59,4.25a10.125,10.125,0,0,1,3.758,7.875Z" transform="translate(-2.762 -2)" fill="#7d8589"/>
      </g>
      <path id="Trazado_154662" data-name="Trazado 154662" d="M37,14H64V41H37Z" transform="translate(33.75 16.25)" fill="#ffec5f" opacity="0.5"/>
      <path id="Trazado_154663" data-name="Trazado 154663" d="M37,30H64V57H37Z" transform="translate(33.75 36.25)" fill="#ffec5f" opacity="0.5"/>
      <path id="Trazado_154664" data-name="Trazado 154664" d="M37,46H64V73H37Z" transform="translate(33.75 56.25)" fill="#ffec5f" opacity="0.5"/>
      <path id="Trazado_154665" data-name="Trazado 154665" d="M15,18H46.5v9H15Z" transform="translate(6.25 21.25)" fill="#f4783b" opacity="0.5"/>
      <path id="Trazado_154666" data-name="Trazado 154666" d="M15,34H46.5v9H15Z" transform="translate(6.25 41.25)" fill="#f4783b" opacity="0.5"/>
      <path id="Trazado_154667" data-name="Trazado 154667" d="M15,50H46.5v9H15Z" transform="translate(6.25 61.25)" fill="#f4783b" opacity="0.5"/>
      <path id="Trazado_154668" data-name="Trazado 154668" d="M45.387,33.438h.225a2.25,2.25,0,0,0,1.643-1.013l9-13.5L52.52,16.45,45.027,27.7l-2.543-2.565-3.195,3.2,4.5,4.5a2.25,2.25,0,0,0,1.6.608Z" transform="translate(36.613 19.313)"/>
      <path id="Trazado_154669" data-name="Trazado 154669" d="M45.387,49.438h.225a2.25,2.25,0,0,0,1.643-1.013l9-13.5L52.52,32.45,45.027,43.7l-2.543-2.565L39.29,44.33l4.5,4.5a2.25,2.25,0,0,0,1.6.607Z" transform="translate(36.613 39.313)"/>
      <path id="Trazado_154670" data-name="Trazado 154670" d="M45.387,65.437h.225a2.25,2.25,0,0,0,1.643-1.012l9-13.5L52.52,48.45,45.027,59.7l-2.543-2.565L39.29,60.33l4.5,4.5a2.25,2.25,0,0,0,1.6.607Z" transform="translate(36.613 59.313)"/>
      <path id="Trazado_154671" data-name="Trazado 154671" d="M47.75,17H16.25A2.25,2.25,0,0,0,14,19.25v9a2.25,2.25,0,0,0,2.25,2.25h31.5A2.25,2.25,0,0,0,50,28.25v-9A2.25,2.25,0,0,0,47.75,17ZM45.5,26h-27V21.5h27Z" transform="translate(5 20)"/>
      <path id="Trazado_154672" data-name="Trazado 154672" d="M47.75,33H16.25A2.25,2.25,0,0,0,14,35.25v9a2.25,2.25,0,0,0,2.25,2.25h31.5A2.25,2.25,0,0,0,50,44.25v-9A2.25,2.25,0,0,0,47.75,33ZM45.5,42h-27V37.5h27Z" transform="translate(5 40)"/>
      <path id="Trazado_154673" data-name="Trazado 154673" d="M47.75,49H16.25A2.25,2.25,0,0,0,14,51.25v9a2.25,2.25,0,0,0,2.25,2.25h31.5A2.25,2.25,0,0,0,50,60.25v-9A2.25,2.25,0,0,0,47.75,49ZM45.5,58h-27V53.5h27Z" transform="translate(5 60)"/>
      <path id="Trazado_154674" data-name="Trazado 154674" d="M65.25,13h-27A2.25,2.25,0,0,0,36,15.25v27a2.25,2.25,0,0,0,2.25,2.25h27a2.25,2.25,0,0,0,2.25-2.25v-27A2.25,2.25,0,0,0,65.25,13ZM63,40H40.5V17.5H63Z" transform="translate(32.5 15)"/>
      <path id="Trazado_154675" data-name="Trazado 154675" d="M65.25,29h-27A2.25,2.25,0,0,0,36,31.25v27a2.25,2.25,0,0,0,2.25,2.25h27a2.25,2.25,0,0,0,2.25-2.25v-27A2.25,2.25,0,0,0,65.25,29ZM63,56H40.5V33.5H63Z" transform="translate(32.5 35)"/>
      <path id="Trazado_154676" data-name="Trazado 154676" d="M65.25,45h-27A2.25,2.25,0,0,0,36,47.25v27a2.25,2.25,0,0,0,2.25,2.25h27a2.25,2.25,0,0,0,2.25-2.25v-27A2.25,2.25,0,0,0,65.25,45ZM63,72H40.5V49.5H63Z" transform="translate(32.5 55)"/>
      <path id="Trazado_154677" data-name="Trazado 154677" d="M106.75,140.5a2.25,2.25,0,0,0,2.25-2.25V3.25A2.25,2.25,0,0,0,106.75,1H21.25A11.25,11.25,0,0,0,10,12.25v126a2.25,2.25,0,0,0,2.25,2.25ZM91.135,5.5,32.5,22.735V12.25A11.25,11.25,0,0,0,30.25,5.5ZM14.5,12.25a6.75,6.75,0,0,1,13.5,0v13.5a2.25,2.25,0,0,0,2.88,2.16L104.5,6.265V136h-90Z" transform="translate(0 0)"/>
    </g>
    <rect id="Rectángulo_31739" data-name="Rectángulo 31739" width="188" height="165" transform="translate(-11871 -6411)" fill="none"/>
  </g>
</svg>
