<svg xmlns="http://www.w3.org/2000/svg" width="188" height="165" viewBox="0 0 188 165">
  <g id="Grupo_85601" data-name="Grupo 85601" transform="translate(10333 6425)">
    <g id="objetivo" transform="translate(-10305.036 -6413.666)">
      <g id="Grupo_85546" data-name="Grupo 85546">
        <g id="Grupo_85534" data-name="Grupo 85534" transform="translate(2.889 18.022)">
          <g id="Grupo_85533" data-name="Grupo 85533" transform="translate(0 0)">
            <ellipse id="Elipse_4060" data-name="Elipse 4060" cx="58.782" cy="58.779" rx="58.782" ry="58.779" transform="translate(0 0.118) rotate(-0.057)" fill="#e5ecec"/>
          </g>
        </g>
        <g id="Grupo_85536" data-name="Grupo 85536" transform="translate(17.202 32.312)">
          <g id="Grupo_85535" data-name="Grupo 85535">
            <path id="Trazado_154693" data-name="Trazado 154693" d="M108.21,208.672a44.523,44.523,0,0,1-27.077-79.879q.449-.345.907-.679a44.532,44.532,0,1,1,26.169,80.557Z" transform="translate(-63.67 -119.597)" fill="#f5737f"/>
          </g>
        </g>
        <g id="Grupo_85537" data-name="Grupo 85537" transform="translate(17.202 32.312)">
          <path id="Trazado_154694" data-name="Trazado 154694" d="M93.117,122.229a44.618,44.618,0,1,1-20.9,15.693" transform="translate(-63.67 -119.597)" fill="#f5737f"/>
        </g>
        <g id="Grupo_85540" data-name="Grupo 85540">
          <g id="Grupo_85538" data-name="Grupo 85538">
            <path id="Trazado_154695" data-name="Trazado 154695" fill="#f5737f"/>
          </g>
          <g id="Grupo_85539" data-name="Grupo 85539" transform="translate(32.875 38.135)">
            <path id="Trazado_154696" data-name="Trazado 154696" d="M124.377,146.543a2.7,2.7,0,1,1,2.65-2.172,2.723,2.723,0,0,1-2.65,2.172Z" transform="translate(-121.681 -141.147)"/>
          </g>
        </g>
        <g id="Grupo_85542" data-name="Grupo 85542" transform="translate(31.37 46.475)">
          <g id="Grupo_85541" data-name="Grupo 85541" transform="translate(0)">
            <ellipse id="Elipse_4061" data-name="Elipse 4061" cx="30.296" cy="30.298" rx="30.296" ry="30.298" transform="translate(0 60.593) rotate(-89.885)" fill="#e5ecec"/>
          </g>
        </g>
        <g id="Grupo_85544" data-name="Grupo 85544" transform="translate(82.249 93.615)">
          <g id="Grupo_85543" data-name="Grupo 85543">
            <path id="Trazado_154697" data-name="Trazado 154697" d="M307.127,351.889a2.7,2.7,0,1,1,2.668-2.279A2.726,2.726,0,0,1,307.127,351.889Z" transform="translate(-304.427 -346.494)"/>
          </g>
        </g>
        <g id="Grupo_85545" data-name="Grupo 85545" transform="translate(45.611 60.715)">
          <ellipse id="Elipse_4062" data-name="Elipse 4062" cx="16.055" cy="16.056" rx="16.055" ry="16.056" transform="translate(0 32.109) rotate(-89.771)" fill="#f5737f"/>
        </g>
      </g>
      <g id="Grupo_85550" data-name="Grupo 85550" transform="translate(0.258 0)">
        <g id="Grupo_85547" data-name="Grupo 85547" transform="translate(102.625 2.702)">
          <path id="Trazado_154698" data-name="Trazado 154698" d="M394.963,10,383.19,21.774A8.181,8.181,0,0,0,380.8,27.26l.267,14.986,15.173-15.2Z" transform="translate(-380.799 -10.001)" fill="#ffcb7c"/>
        </g>
        <g id="Grupo_85549" data-name="Grupo 85549">
          <g id="Grupo_85548" data-name="Grupo 85548" transform="translate(102.891 19.749)">
            <path id="Trazado_154699" data-name="Trazado 154699" d="M414.006,74.372,396.958,73.1l-15.173,15.2,14.962.242a8.182,8.182,0,0,0,5.486-2.391Z" transform="translate(-381.785 -73.097)" fill="#ffd89e"/>
          </g>
          <path id="Trazado_154700" data-name="Trazado 154700" d="M138.6,20.085a2.7,2.7,0,0,0-2.331-1.754l-14.729-1.1L120.439,2.5a2.7,2.7,0,0,0-4.6-1.709L104.061,12.565a10.847,10.847,0,0,0-3.18,7.3c0,.049,0,.1,0,.147l.16,9.021a61.547,61.547,0,1,0,8.81,8.716l8.916.144h.043l.1,0a10.85,10.85,0,0,0,7.3-3.18l11.774-11.773a2.7,2.7,0,0,0,.622-2.85Zm-30.719-3.7,7.608-7.608.744,9.939-9.8,9.814-.152-8.537a5.459,5.459,0,0,1,1.6-3.608ZM62.44,132.928A56.077,56.077,0,1,1,99.857,35.116L93.6,41.373A47.2,47.2,0,0,0,46.429,32.4a2.7,2.7,0,0,0,1.836,5.082A41.8,41.8,0,0,1,89.772,45.2L83.5,51.468a32.992,32.992,0,1,0-6.07,54.774,2.7,2.7,0,1,0-2.463-4.81,27.239,27.239,0,0,1-12.531,3.013A27.595,27.595,0,1,1,79.664,55.308l-6.3,6.3a18.781,18.781,0,1,0,3.893,3.749l6.279-6.279a27.567,27.567,0,0,1,5.1,26.45,2.7,2.7,0,0,0,5.128,1.7,32.972,32.972,0,0,0-6.4-31.985l6.259-6.259a41.837,41.837,0,1,1-64.993,3.242,2.7,2.7,0,0,0-4.364-3.187,47.244,47.244,0,1,0,73.18-3.879l6.253-6.252A56.048,56.048,0,0,1,62.44,132.928ZM75.793,76.85A13.365,13.365,0,1,1,69.469,65.5l-8.618,8.617a2.7,2.7,0,1,0,3.821,3.821l8.72-8.72A13.277,13.277,0,0,1,75.793,76.85Zm46.592-45.963a5.463,5.463,0,0,1-3.61,1.6l-8.508-.138,5.19-5.19c.058-.058.112-.118.163-.179l4.435-4.442,9.937.744Z" transform="translate(-0.956 -0.001)"/>
        </g>
      </g>
    </g>
    <rect id="Rectángulo_31741" data-name="Rectángulo 31741" width="188" height="165" transform="translate(-10333 -6425)" fill="none"/>
  </g>
</svg>
